<svg xmlns="http://www.w3.org/2000/svg" xmlns:xlink="http://www.w3.org/1999/xlink" viewBox="0 0 375 66"><defs><style>.cls-1{fill:#fff;}.cls-2{font-size:10px;font-family:HelveticaNeue-Thin, Helvetica Neue;}.cls-3{letter-spacing:-0.01em;}.cls-4{letter-spacing:-0.01em;}.cls-5{letter-spacing:-0.02em;}.cls-6{letter-spacing:-0.05em;}</style></defs><title>Asset 14</title><g id="Layer_2" data-name="Layer 2"><g id="Layer_1-2" data-name="Layer 1"><rect class="cls-1" width="375" height="66"/><text class="cls-2" transform="translate(62 39.81)">The idea is super cool. Especially for PMs that need <tspan class="cls-3" x="217.91" y="0">t</tspan><tspan x="220.36" y="0">o sha</tspan><tspan class="cls-4" x="243.51" y="0">r</tspan><tspan x="246.17" y="0">e the p</tspan><tspan class="cls-4" x="275.46" y="0">r</tspan><tspan x="278.12" y="0">oject </tspan><tspan x="0" y="12">timeline with the clients. The UI needs some work but ove</tspan><tspan class="cls-5" x="238.97" y="12">r</tspan><tspan x="241.55" y="12">all it</tspan><tspan class="cls-6" x="256.96" y="12">’</tspan><tspan x="258.52" y="12">s decent.</tspan></text><path d="M62.66,22.65l1.86-2.35-2.85-.94.2-.65,2.83.95v-3h.67v3l2.81-.95.23.65-2.83.94,1.75,2.35-.51.46-1.77-2.44-1.84,2.44Z"/><path d="M70.75,22.65l1.86-2.35-2.85-.94.21-.65,2.83.95v-3h.67v3l2.8-.95.23.65-2.83.94,1.75,2.35-.5.46-1.78-2.44L71.3,23.11Z"/><path d="M78.85,22.65l1.86-2.35-2.85-.94.21-.65,2.82.95v-3h.67v3l2.81-.95.23.65-2.83.94,1.75,2.35-.51.46-1.77-2.44L79.4,23.11Z"/><path d="M86.94,22.65l1.87-2.35L86,19.36l.21-.65,2.83.95v-3h.67v3l2.8-.95.23.65-2.83.94,1.75,2.35-.5.46-1.78-2.44L87.5,23.11Z"/><path d="M95,22.65,96.9,20.3l-2.85-.94.21-.65,2.83.95v-3h.66v3l2.81-.95.23.65L98,20.3l1.75,2.35-.51.46-1.77-2.44-1.84,2.44Z"/><path d="M103.13,22.65,105,20.3l-2.85-.94.2-.65,2.83.95v-3h.67v3l2.8-.95.23.65-2.82.94,1.74,2.35-.5.46-1.77-2.44-1.84,2.44Z"/><path d="M115.12,22.78a8.51,8.51,0,0,1-.34-2.35,8.93,8.93,0,0,1,.34-2.41,9.67,9.67,0,0,1,1-2.24h.35a9.3,9.3,0,0,0-1,2.23,9,9,0,0,0,0,4.75,8.49,8.49,0,0,0,.94,2.17h-.34A9.44,9.44,0,0,1,115.12,22.78Z"/><path d="M117.17,16h3a3.32,3.32,0,0,1,.67.07,1.92,1.92,0,0,1,.68.28,1.74,1.74,0,0,1,.52.61,2.24,2.24,0,0,1,.21,1,1.81,1.81,0,0,1-.58,1.45,2.42,2.42,0,0,1-1.66.51h-2.44v3.18h-.44Zm.44,3.58h2.51a2,2,0,0,0,.82-.15,1.4,1.4,0,0,0,.53-.37,1.3,1.3,0,0,0,.29-.51,1.82,1.82,0,0,0,.09-.56,2.4,2.4,0,0,0-.06-.48,1.48,1.48,0,0,0-.24-.53,1.42,1.42,0,0,0-.5-.43,2,2,0,0,0-.87-.17h-2.57Z"/><path d="M126.12,22.07h0a1.38,1.38,0,0,1-.26.43,1.83,1.83,0,0,1-.41.37,1.91,1.91,0,0,1-.56.25,2.38,2.38,0,0,1-.68.09,2,2,0,0,1-1.27-.36,1.29,1.29,0,0,1-.45-1.09,1.37,1.37,0,0,1,.18-.74,1.41,1.41,0,0,1,.46-.45,2,2,0,0,1,.61-.23,5.27,5.27,0,0,1,.64-.1l.59,0a3,3,0,0,0,.65-.1.72.72,0,0,0,.35-.18.48.48,0,0,0,.15-.29,2.81,2.81,0,0,0,0-.45.85.85,0,0,0-.08-.39.76.76,0,0,0-.25-.32,1.21,1.21,0,0,0-.44-.22,2.48,2.48,0,0,0-.66-.08,1.69,1.69,0,0,0-1.11.34,1.38,1.38,0,0,0-.47,1h-.38a1.7,1.7,0,0,1,.55-1.28,2.18,2.18,0,0,1,1.43-.42,2.09,2.09,0,0,1,1.36.36,1.23,1.23,0,0,1,.42,1v3c0,.07,0,.15,0,.22a.64.64,0,0,0,0,.2.3.3,0,0,0,.1.14.32.32,0,0,0,.2.06l.28,0v.32a1.06,1.06,0,0,1-.31,0,.9.9,0,0,1-.36-.06.49.49,0,0,1-.21-.16.85.85,0,0,1-.09-.24,1.29,1.29,0,0,1,0-.29Zm0-1.9a.71.71,0,0,1-.42.23,5.19,5.19,0,0,1-.64.09l-.64.06-.56.08a1.67,1.67,0,0,0-.5.19,1.12,1.12,0,0,0-.37.35,1.14,1.14,0,0,0-.14.59,1,1,0,0,0,.36.84,1.55,1.55,0,0,0,1,.28,1.89,1.89,0,0,0,1-.24,1.78,1.78,0,0,0,.84-1.13,1.92,1.92,0,0,0,.05-.38Z"/><path d="M128.09,19.09h0a1.37,1.37,0,0,1,.26-.47,1.68,1.68,0,0,1,.45-.38,2.23,2.23,0,0,1,.59-.25,2.5,2.5,0,0,1,.67-.07v.38a1.66,1.66,0,0,0-.68.06,1.69,1.69,0,0,0-.74.44l-.24.29a1.57,1.57,0,0,0-.18.31,2.9,2.9,0,0,0-.11.38c0,.14,0,.31,0,.5v2.81h-.38V18h.38Z"/><path d="M132.64,18.28h-1.12v3.59a1.55,1.55,0,0,0,.07.49.54.54,0,0,0,.22.27.67.67,0,0,0,.35.12,3.52,3.52,0,0,0,.47,0v.33a3.47,3.47,0,0,1-.56,0,1,1,0,0,1-.49-.15.8.8,0,0,1-.33-.37,1.51,1.51,0,0,1-.11-.69V18.28h-.95V18h.95v-1.6h.38V18h1.12Z"/><path d="M133.43,17V16h.38v1Zm0,6.11V18h.38v5.14Z"/><path d="M138.89,19.54a1.4,1.4,0,0,0-.17-.6,1.31,1.31,0,0,0-.38-.43,1.75,1.75,0,0,0-.53-.26,2.29,2.29,0,0,0-.66-.09,1.8,1.8,0,0,0-.85.19,2.07,2.07,0,0,0-.62.52,2.73,2.73,0,0,0-.38.74,3.14,3.14,0,0,0-.13.86,3.6,3.6,0,0,0,.12,1,2.24,2.24,0,0,0,.37.76,1.79,1.79,0,0,0,.62.51,2,2,0,0,0,.87.18,1.81,1.81,0,0,0,.67-.12,1.87,1.87,0,0,0,.54-.33,1.62,1.62,0,0,0,.38-.51,1.92,1.92,0,0,0,.2-.64h.38a2.32,2.32,0,0,1-.25.82,1.77,1.77,0,0,1-.48.6,2,2,0,0,1-.66.38,2.2,2.2,0,0,1-.78.13,2.35,2.35,0,0,1-1.07-.23,2.05,2.05,0,0,1-.73-.6,2.56,2.56,0,0,1-.42-.88,3.88,3.88,0,0,1-.14-1,3.4,3.4,0,0,1,.16-1,2.43,2.43,0,0,1,.45-.84,2.19,2.19,0,0,1,.74-.57,2.34,2.34,0,0,1,1-.21,2.85,2.85,0,0,1,.79.1,2.08,2.08,0,0,1,.65.32,1.68,1.68,0,0,1,.46.53,1.83,1.83,0,0,1,.22.76Z"/><path d="M140.3,17V16h.38v1Zm0,6.11V18h.38v5.14Z"/><path d="M142.35,19.13h0a2,2,0,0,1,.2-.42,2.11,2.11,0,0,1,.37-.43,2.16,2.16,0,0,1,.56-.32,1.92,1.92,0,0,1,.74-.13,2.2,2.2,0,0,1,1,.22,2.08,2.08,0,0,1,.72.59,2.47,2.47,0,0,1,.42.86,3.51,3.51,0,0,1,.14,1,3.71,3.71,0,0,1-.14,1.08,2.21,2.21,0,0,1-.42.84,1.9,1.9,0,0,1-.72.56,2.52,2.52,0,0,1-1,.2,2.24,2.24,0,0,1-1.14-.28,1.66,1.66,0,0,1-.74-.91h0v2.91H142V18h.37Zm1.9,3.75a1.73,1.73,0,0,0,1.47-.7,2.16,2.16,0,0,0,.35-.75,3.61,3.61,0,0,0,0-1.77,2.27,2.27,0,0,0-.34-.76,1.8,1.8,0,0,0-.59-.54,1.89,1.89,0,0,0-.89-.2,1.8,1.8,0,0,0-.87.2,1.67,1.67,0,0,0-.59.53,2.32,2.32,0,0,0-.33.75,4.33,4.33,0,0,0-.1.89,4.17,4.17,0,0,0,.09.88,2.12,2.12,0,0,0,.31.75,1.54,1.54,0,0,0,.58.52A1.94,1.94,0,0,0,144.25,22.88Z"/><path d="M150.86,22.07h0a1.38,1.38,0,0,1-.26.43,1.83,1.83,0,0,1-.41.37,2,2,0,0,1-.56.25,2.38,2.38,0,0,1-.68.09,2,2,0,0,1-1.27-.36,1.29,1.29,0,0,1-.45-1.09,1.37,1.37,0,0,1,.18-.74,1.41,1.41,0,0,1,.46-.45,2,2,0,0,1,.61-.23,5.27,5.27,0,0,1,.64-.1l.59,0a3,3,0,0,0,.65-.1.72.72,0,0,0,.35-.18.48.48,0,0,0,.15-.29,2.81,2.81,0,0,0,0-.45.85.85,0,0,0-.08-.39.76.76,0,0,0-.25-.32,1.21,1.21,0,0,0-.44-.22,2.48,2.48,0,0,0-.66-.08,1.69,1.69,0,0,0-1.11.34,1.34,1.34,0,0,0-.47,1h-.38a1.7,1.7,0,0,1,.55-1.28,2.18,2.18,0,0,1,1.43-.42,2.09,2.09,0,0,1,1.36.36,1.23,1.23,0,0,1,.42,1v3c0,.07,0,.15,0,.22a.64.64,0,0,0,0,.2.3.3,0,0,0,.1.14.32.32,0,0,0,.2.06l.28,0v.32a1.06,1.06,0,0,1-.31,0,.9.9,0,0,1-.36-.06.49.49,0,0,1-.21-.16.85.85,0,0,1-.09-.24,1.29,1.29,0,0,1,0-.29Zm0-1.9a.71.71,0,0,1-.42.23,5.19,5.19,0,0,1-.64.09l-.64.06-.56.08a1.67,1.67,0,0,0-.5.19,1.12,1.12,0,0,0-.37.35,1.14,1.14,0,0,0-.14.59,1,1,0,0,0,.36.84,1.55,1.55,0,0,0,1,.28,1.89,1.89,0,0,0,1-.24,1.78,1.78,0,0,0,.84-1.13,3.28,3.28,0,0,0,.05-.38Z"/><path d="M152.45,18h.38v1.1h0a1.66,1.66,0,0,1,.29-.52,2,2,0,0,1,.43-.38,1.7,1.7,0,0,1,.53-.24,2.39,2.39,0,0,1,.59-.08,2.46,2.46,0,0,1,.77.11,1.39,1.39,0,0,1,.51.29,1.35,1.35,0,0,1,.32.4,1.68,1.68,0,0,1,.16.46,1.72,1.72,0,0,1,.06.44c0,.15,0,.27,0,.38v3.18h-.38V19.84a4.71,4.71,0,0,0,0-.48,1.45,1.45,0,0,0-.17-.56,1.34,1.34,0,0,0-.44-.45,1.49,1.49,0,0,0-.82-.19,1.72,1.72,0,0,0-1.36.6,1.93,1.93,0,0,0-.36.68,3,3,0,0,0-.13.87v2.78h-.38Z"/><path d="M159.53,18.28h-1.12v3.59a1.55,1.55,0,0,0,.07.49.54.54,0,0,0,.22.27.67.67,0,0,0,.35.12,3.52,3.52,0,0,0,.47,0v.33a3.47,3.47,0,0,1-.56,0,1,1,0,0,1-.49-.15.8.8,0,0,1-.33-.37,1.51,1.51,0,0,1-.11-.69V18.28h-.95V18H158v-1.6h.38V18h1.12Z"/><path d="M160.73,22.69a9.11,9.11,0,0,0,0-4.75,8.24,8.24,0,0,0-.94-2.16h.34a8.64,8.64,0,0,1,1,2.15,8.15,8.15,0,0,1,.34,2.35,8.56,8.56,0,0,1-.34,2.41,9.26,9.26,0,0,1-1,2.24h-.35A9.23,9.23,0,0,0,160.73,22.69Z"/><image width="81" height="73" transform="translate(10 14) scale(0.53)" xlink:href="../../../../../Desktop/Desktop1/Screenshots/Screen Shot 2018-07-25 at 10.11.55 PM.png"/></g></g></svg>