<svg enable-background="new 0 0 512 512" viewBox="0 0 512 512" xmlns="http://www.w3.org/2000/svg"><path d="m337.8 434.7-73.3 73.8c-4.7 4.7-12.3 4.7-17 0l-73.3-73.8c-4.7-4.7-4.7-12.3 0-17l7.1-7.1c4.7-4.7 12.3-4.7 17 0l40.7 41.2h1v-179.8h-179.9v1l41.2 40.7c4.7 4.7 4.7 12.3 0 17l-7.1 7.1c-4.7 4.7-12.3 4.7-17 0l-73.7-73.3c-4.7-4.7-4.7-12.3 0-17l73.8-73.3c4.7-4.7 12.3-4.7 17 0l7.1 7.1c4.7 4.7 4.7 12.3 0 17l-41.3 40.7v1h179.9v-179.9h-1l-40.7 41.2c-4.7 4.7-12.3 4.7-17 0l-7.1-7.1c-4.7-4.7-4.7-12.3 0-17l73.3-73.8c4.7-4.7 12.3-4.7 17 0l73.3 73.8c4.7 4.7 4.7 12.3 0 17l-7.1 7.1c-4.7 4.7-12.3 4.7-17 0l-40.7-41.2h-1v179.9h179.9v-1l-41.2-40.7c-4.7-4.7-4.7-12.3 0-17l7.1-7.1c4.7-4.7 12.3-4.7 17 0l73.8 73.3c4.7 4.7 4.7 12.3 0 17l-73.8 73.3c-4.7 4.7-12.3 4.7-17 0l-7.1-7.1c-4.7-4.7-4.7-12.3 0-17l41.2-40.7v-1h-179.9v179.9h1l40.7-41.2c4.7-4.7 12.3-4.7 17 0l7.1 7.1c4.7 4.6 4.7 12.2 0 16.9z" fill="#83d0ff"/></svg>