<svg enable-background="new 0 0 576 512" viewBox="0 0 576 512" xmlns="http://www.w3.org/2000/svg"><path d="m360 352h112c4.4 0 8-3.6 8-8v-16c0-4.4-3.6-8-8-8h-112c-4.4 0-8 3.6-8 8v16c0 4.4 3.6 8 8 8zm0-64h112c4.4 0 8-3.6 8-8v-16c0-4.4-3.6-8-8-8h-112c-4.4 0-8 3.6-8 8v16c0 4.4 3.6 8 8 8zm0 128h112c4.4 0 8-3.6 8-8v-16c0-4.4-3.6-8-8-8h-112c-4.4 0-8 3.6-8 8v16c0 4.4 3.6 8 8 8zm-168-32c44.2 0 80-35.8 80-80s-35.8-80-80-80-80 35.8-80 80 35.8 80 80 80zm0-128c26.5 0 48 21.5 48 48s-21.5 48-48 48-48-21.5-48-48 21.5-48 48-48zm320-192h-448c-35.3 0-64 28.7-64 64v320c0 35.3 28.7 64 64 64h448c35.3 0 64-28.7 64-64v-320c0-35.3-28.7-64-64-64zm-240 416h-160v-15.1c0-7 2.1-13.8 6-19.6 5.6-8.3 15.8-13.2 27.3-13.2 12.4 0 20.8 7 46.8 7 25.9 0 34.3-7 46.8-7 11.5 0 21.7 5 27.3 13.2 3.9 5.8 6 12.6 6 19.6v15.1zm272-32c0 17.6-14.4 32-32 32h-208v-15.1c0-13.9-4.2-26.8-11.4-37.5-12.1-17.9-32.7-27.4-53.8-27.4-19.5 0-24.4 7-46.8 7s-27.3-7-46.8-7c-21.2 0-41.8 9.4-53.8 27.4-7.2 10.7-11.4 23.6-11.4 37.5v15.1h-16c-17.6 0-32-14.4-32-32v-256h512zm0-288h-512v-32c0-17.6 14.4-32 32-32h448c17.6 0 32 14.4 32 32z" fill="#83d0ff"/></svg>