<svg enable-background="new 0 0 640 512" viewBox="0 0 640 512" xmlns="http://www.w3.org/2000/svg"><path d="m41.8 334.1c-3.8 2.2-5.1 7.1-2.9 10.9l8 13.9c2.2 3.8 7.1 5.1 10.9 2.9l99.2-57.3c-6.7-8.5-12.8-17.3-18-26.5zm70.5-158.1h-104.3c-4.4 0-8 3.6-8 8v16c0 4.4 3.6 8 8 8h106.5c-1.6-10.5-2.2-21.2-2.2-32zm-70.5-126.1 85.2 49.1c4-10 8.7-19.6 14.2-28.8l-83.4-48.1c-3.8-2.2-8.7-.9-10.9 2.9l-8 13.9c-2.2 3.9-.9 8.7 2.9 11zm556.4 0c3.8-2.2 5.1-7.1 2.9-10.9l-8-13.9c-2.2-3.8-7.1-5.1-10.9-2.9l-83.4 48.1c5.4 9.2 10.2 18.7 14.2 28.7zm33.8 126.1h-104c0 10.8-1.2 21.4-2.9 32h106.9c4.4 0 8-3.6 8-8v-16c0-4.4-3.6-8-8-8zm-33.8 158.1-97.4-56.2c-5.2 9.3-11.5 18-18.1 26.5l99.5 57.5c3.8 2.2 8.7.9 10.9-2.9l8-13.9c2.2-3.9.9-8.7-2.9-11zm-278.2-270.1c-61.8 0-112 50.2-112 112 0 8.8 7.2 16 16 16s16-7.2 16-16c0-44.1 35.9-80 80-80 8.8 0 16-7.2 16-16s-7.2-16-16-16zm0-64c-102.9 0-176.1 83.5-176 176.2.1 44.3 16.5 84.7 43.6 115.5 25.6 29.3 50.3 76.9 52.4 92.2l.1 75.2c0 3.1.9 6.2 2.7 8.8l24.5 36.8c3 4.5 8 7.1 13.3 7.1h78.9c5.4 0 10.4-2.7 13.3-7.1l24.5-36.8c1.7-2.6 2.7-5.7 2.7-8.8v-75.1c2.3-15.7 27-63.2 52.4-92.2 27.2-30.9 43.6-71.4 43.6-115.8 0-97.2-78.8-176-176-176zm47.9 454.3-17 25.7h-61.7l-17.1-25.7v-6.3h95.9v6.3zm.1-38.3h-96l-.1-32h96.1zm60.4-145.3c-14 16-36.3 48.1-50.6 81.3h-115.6c-14.3-33.2-36.6-65.4-50.6-81.3-23.1-26.4-35.5-59.8-35.6-94.7-.2-77 60.4-144 144-144 79.4 0 144 64.6 144 144 0 34.9-12.6 68.5-35.6 94.7z" fill="#83d0ff"/></svg>