<svg enable-background="new 0 0 512 512" viewBox="0 0 512 512" xmlns="http://www.w3.org/2000/svg"><path d="m464 64c8.8 0 16 7.2 16 16v352c0 8.8-7.2 16-16 16h-416c-8.8 0-16-7.2-16-16v-352c0-8.8 7.2-16 16-16zm0-32h-416c-26.5 0-48 21.5-48 48v352c0 26.5 21.5 48 48 48h416c26.5 0 48-21.5 48-48v-352c0-26.5-21.5-48-48-48zm-336 96c-17.7 0-32 14.3-32 32s14.3 32 32 32 32-14.3 32-32-14.3-32-32-32zm0 96c-17.7 0-32 14.3-32 32s14.3 32 32 32 32-14.3 32-32-14.3-32-32-32zm0 96c-17.7 0-32 14.3-32 32s14.3 32 32 32 32-14.3 32-32-14.3-32-32-32zm288-148v-24c0-3.3-2.7-6-6-6h-212c-3.3 0-6 2.7-6 6v24c0 3.3 2.7 6 6 6h212c3.3 0 6-2.7 6-6zm0 96v-24c0-3.3-2.7-6-6-6h-212c-3.3 0-6 2.7-6 6v24c0 3.3 2.7 6 6 6h212c3.3 0 6-2.7 6-6zm0 96v-24c0-3.3-2.7-6-6-6h-212c-3.3 0-6 2.7-6 6v24c0 3.3 2.7 6 6 6h212c3.3 0 6-2.7 6-6z" fill="#83d0ff"/></svg>