<svg enable-background="new 0 0 576 512" viewBox="0 0 576 512" xmlns="http://www.w3.org/2000/svg"><path d="m568 32h-16c-4.4 0-8 3.6-8 8v19.3l-512 120.5v-11.8c0-4.4-3.6-8-8-8h-16c-4.4 0-8 3.6-8 8v176c0 4.4 3.6 8 8 8h16c4.4 0 8-3.6 8-8v-11.8l130.6 30.7c-1.6 6.8-2.6 13.8-2.6 21.1 0 53 43 96 96 96 45.1 0 82.5-31.3 92.6-73.3l195.4 46v19.3c0 4.4 3.6 8 8 8h16c4.4 0 8-3.6 8-8v-432c0-4.4-3.6-8-8-8zm-312 416c-35.3 0-64-28.7-64-64 0-4.8.7-9.3 1.8-13.7l124.1 29.2c-7 27.8-32 48.5-61.9 48.5zm-224-148.7v-86.7l512-120.4v327.6z" fill="#83d0ff"/></svg>