<svg enable-background="new 0 0 512 512" viewBox="0 0 512 512" xmlns="http://www.w3.org/2000/svg"><path d="m493.3 56.2-37.5-37.5c-25-25-65.5-25-90.5 0l-352.5 352.5-12.6 114.1c-1.7 15.3 11.2 28.2 26.5 26.5l114.2-12.7 352.4-352.4c24.9-24.9 24.9-65.5 0-90.5zm-328.6 291.1c6.2 6.2 16.4 6.2 22.6 0l180.7-180.7 30.1 30.1-224.1 224v-34.7h-48v-48h-34.7l224.1-224.1 30.1 30.1-180.8 180.7c-6.3 6.2-6.3 16.4 0 22.6zm-38.6 121.3-59 6.6-30.3-30.3 6.6-59 19.9-19.9h34.7v48h48v34.7zm344.5-344.5-49.9 49.9-82.7-82.7 49.9-49.9c12.5-12.5 32.7-12.5 45.3 0l37.5 37.5c12.4 12.5 12.4 32.7-.1 45.2z" fill="#83d0ff"/></svg>