<svg enable-background="new 0 0 512 512" viewBox="0 0 512 512" xmlns="http://www.w3.org/2000/svg"><path d="m502.7 368.1-122.8-122.8 49.4-49.4 68.6-68.7c18.8-18.8 18.8-49.2 0-67.9l-45.2-45.2c-9.4-9.4-21.7-14.1-34-14.1s-24.6 4.7-34 14.1l-68.6 68.6-49.4 49.4-122.8-122.8c-6.2-6.2-14.3-9.3-22.5-9.3s-16.2 3.1-22.4 9.3l-89.7 89.7c-12.4 12.4-12.4 32.5 0 44.9l122.8 122.8-113 113-18.8 107.4c-2.7 15.6 11.2 26.9 24.6 24.6l107.4-18.8 112.9-113 122.8 122.8c5.9 6 14 9.3 22.4 9.3 8.1 0 16.2-3.1 22.4-9.3l89.7-89.7c12.6-12.4 12.6-32.5.2-44.9zm-95.3-331.4c4.1-4.1 18.6-4.1 22.7 0l45.2 45.2c6.2 6.2 6.2 16.4 0 22.7l-46 46-67.9-67.9c-.1 0 46-46 46-46zm-375.5 84.9 89.5-89.5 56 55.9-39 39c-3.1 3.1-3.1 8.2 0 11.3l11.3 11.3c3.1 3.1 8.2 3.1 11.3 0l39-39 44.1 44-89.5 89.5zm85 341.5-82.4 14.5 14.4-82.4 289.8-289.8 67.9 67.9zm273.9 17-122.9-122.8 89.5-89.5 44.1 44.1-39.1 39.1c-3.1 3.1-3.1 8.2 0 11.3l11.3 11.3c3.1 3.1 8.2 3.1 11.3 0l39.2-39.2 55.9 55.9z" fill="#83d0ff"/></svg>