<svg enable-background="new 0 0 512 512" viewBox="0 0 512 512" xmlns="http://www.w3.org/2000/svg"><path d="m176 32h-112c-35.3 0-64 28.7-64 64v128c0 35.3 28.7 64 64 64h64v24c0 30.9-25.1 56-56 56h-16c-22.1 0-40 17.9-40 40v32c0 22.1 17.9 40 40 40h16c92.6 0 168-75.4 168-168v-216c0-35.3-28.7-64-64-64zm32 280c0 75.1-60.9 136-136 136h-16c-4.4 0-8-3.6-8-8v-32c0-4.4 3.6-8 8-8h16c48.6 0 88-39.4 88-88v-56h-96c-17.7 0-32-14.3-32-32v-128c0-17.7 14.3-32 32-32h112c17.7 0 32 14.3 32 32zm240-280h-112c-35.3 0-64 28.7-64 64v128c0 35.3 28.7 64 64 64h64v24c0 30.9-25.1 56-56 56h-16c-22.1 0-40 17.9-40 40v32c0 22.1 17.9 40 40 40h16c92.6 0 168-75.4 168-168v-216c0-35.3-28.7-64-64-64zm32 280c0 75.1-60.9 136-136 136h-16c-4.4 0-8-3.6-8-8v-32c0-4.4 3.6-8 8-8h16c48.6 0 88-39.4 88-88v-56h-96c-17.7 0-32-14.3-32-32v-128c0-17.7 14.3-32 32-32h112c17.7 0 32 14.3 32 32z" fill="#83d0ff"/></svg>