<svg enable-background="new 0 0 511.9 512" viewBox="0 0 511.9 512" xmlns="http://www.w3.org/2000/svg"><path d="m501.8 19.1c-1.1-4.4-4.5-7.8-8.8-8.8-39.3-9.6-50.5-10.3-85-10.3-68.6 0-128.1 44.9-173.8 96h-127.5c-11.4 0-21.9 6-27.6 15.9l-74.7 128c-12.4 21.3 3 48.1 27.6 48.1h82.7c-8.6 19.1-14.3 33.5-18.6 44.6-1.7 4.4-.7 9.5 2.7 12.8l67.7 67.7c3.4 3.4 8.4 4.4 12.8 2.7 11.2-4.3 25.5-10 44.6-18.6v82.8c0 24.7 26.8 40.1 48.1 27.6l128-74.7c9.8-5.7 15.9-16.3 15.9-27.6v-127.5c51.1-45.7 96-105.2 96-173.8.1-34.5-.6-45.8-10.1-84.9zm-469.8 236.9 74.7-128h101.1c-32.5 42.6-58.6 88.3-78.1 128zm224 224v-97.7c39.7-19.5 85.4-45.5 128-78.1v101.1zm-76.1-98.7-49.1-49.1c46.8-116.3 153-300.2 277.3-300.2 24.7 0 37.3 0 65.5 6.5 6.4 28.2 6.4 40.7 6.4 65.5 0 124.3-184.1 230.5-300.1 277.3zm188.1-293.3c-30.9 0-56 25.1-56 56s25.1 56 56 56 56-25.1 56-56-25.1-56-56-56zm0 80c-13.2 0-24-10.8-24-24s10.8-24 24-24 24 10.8 24 24-10.8 24-24 24z" fill="#83d0ff"/></svg>