<svg enable-background="new 0 0 512 512" viewBox="0 0 512 512" xmlns="http://www.w3.org/2000/svg"><path d="m432 352h-112c-26.5 0-48-21.5-48-48s21.5-48 48-48h96s96-107 96-160-43-96-96-96-96 43-96 96c0 34.6 40.9 92.2 69.3 128h-69.3c-44.1 0-80 35.9-80 80s35.9 80 80 80h112c26.5 0 48 21.5 48 48s-21.5 48-48 48h-309.3c28.4-35.8 69.3-93.4 69.3-128 0-53-43-96-96-96s-96 43-96 96 96 160 96 160h336c44.1 0 80-35.9 80-80s-35.9-80-80-80zm-80-256c0-35.3 28.7-64 64-64s64 28.7 64 64c0 20.4-30.1 68-64 110.4-34-42.6-64-90.6-64-110.4zm-320 256c0-35.3 28.7-64 64-64s64 28.7 64 64c0 20.4-30.1 68-64 110.4-34-42.6-64-90.6-64-110.4zm64-16c-21.2 0-21.1 32 0 32 21.2 0 21.1-32 0-32zm320-256c-21.2 0-21.1 32 0 32 21.2 0 21.1-32 0-32z" fill="#83d0ff"/></svg>