<svg xmlns="http://www.w3.org/2000/svg" viewBox="0 0 327.12 233.59"><defs><style>.cls-1{fill:#62daeb;}.cls-2{fill:#0acde6;}.cls-3{fill:#fff;}</style></defs><title>Asset 1</title><g id="Layer_2" data-name="Layer 2"><g id="Layer_1-2" data-name="Layer 1"><path class="cls-1" d="M238.13,163.74l-53.92,60.34c-4.84,6-6.75,9.51-14.47,9.51h-6.18V0l71.56,29.28A15.25,15.25,0,0,1,246.45,44v96.1A37.73,37.73,0,0,1,238.13,163.74Z"/><path class="cls-2" d="M89,163.74l53.92,60.34c4.83,6,6.75,9.51,14.46,9.51h6.18V0L92,29.28A15.24,15.24,0,0,0,80.68,44v96.1A37.67,37.67,0,0,0,89,163.74Z"/><path class="cls-3" d="M40.71,135.75a15.89,15.89,0,0,1-1.45,6.74,18.05,18.05,0,0,1-9.55,9.23,17.3,17.3,0,0,1-6.82,1.36H17.82A17.3,17.3,0,0,1,11,151.72,18.22,18.22,0,0,1,5.34,148a18.45,18.45,0,0,1-3.89-5.52A15.89,15.89,0,0,1,0,135.75v-2.81l6.35-1v3.84a10.21,10.21,0,0,0,1,4.4,12,12,0,0,0,2.58,3.6,12.21,12.21,0,0,0,3.77,2.43,11.52,11.52,0,0,0,4.51.89H22.6a11.37,11.37,0,0,0,4.48-.89,12.31,12.31,0,0,0,3.74-2.43,12,12,0,0,0,2.58-3.6,10.21,10.21,0,0,0,1-4.4v-2.12a11.63,11.63,0,0,0-1.43-6,13.36,13.36,0,0,0-3.79-4.11,23.85,23.85,0,0,0-5.34-2.88c-2-.79-4-1.58-6.13-2.37s-4.14-1.65-6.13-2.61a22.51,22.51,0,0,1-5.34-3.56,16.09,16.09,0,0,1-3.79-5.25A18.23,18.23,0,0,1,1,99.17V97.84A16.78,16.78,0,0,1,2.34,91.1a17.32,17.32,0,0,1,9.25-9.23,17.16,17.16,0,0,1,6.77-1.36h4.53a17,17,0,0,1,6.75,1.36,17.54,17.54,0,0,1,5.51,3.71,17.78,17.78,0,0,1,3.72,5.52,16.94,16.94,0,0,1,1.35,6.74v1.82l-6.35,1V97.84a11,11,0,0,0-.89-4.4,11.31,11.31,0,0,0-6-6,10.78,10.78,0,0,0-4.4-.89H18.66a10.8,10.8,0,0,0-4.41.89,11.62,11.62,0,0,0-3.59,2.41,11.17,11.17,0,0,0-2.44,3.57,10.94,10.94,0,0,0-.88,4.4v1.33a10.68,10.68,0,0,0,1.42,5.71,13.33,13.33,0,0,0,3.79,4,26.36,26.36,0,0,0,5.35,2.86q3,1.22,6.12,2.46c2.1.84,4.15,1.76,6.13,2.76a22.87,22.87,0,0,1,5.34,3.69A16.33,16.33,0,0,1,39.28,126a18.41,18.41,0,0,1,1.43,7.68Z"/><path class="cls-3" d="M84,152.09l-3.34-5a15.62,15.62,0,0,1-5.17,4.36,14.25,14.25,0,0,1-6.8,1.65H67.15a14.49,14.49,0,0,1-5.76-1.16,14.78,14.78,0,0,1-7.9-7.9,14.56,14.56,0,0,1-1.16-5.76v-.49A14.49,14.49,0,0,1,53.49,132a14.7,14.7,0,0,1,7.9-7.9A14.49,14.49,0,0,1,67.15,123H80v-7.78a8.57,8.57,0,0,0-.69-3.42A8.78,8.78,0,0,0,77.39,109a8.89,8.89,0,0,0-2.78-1.87,8.58,8.58,0,0,0-3.43-.69H67.64a8.53,8.53,0,0,0-3.42.69,8.72,8.72,0,0,0-4.65,4.65,8.57,8.57,0,0,0-.69,3.42V117l-6.06-1v-.49A14.49,14.49,0,0,1,54,109.76a14.76,14.76,0,0,1,7.9-7.91,14.56,14.56,0,0,1,5.76-1.15h3.54a14.49,14.49,0,0,1,5.76,1.15,14.82,14.82,0,0,1,7.91,7.91A14.49,14.49,0,0,1,86,115.52v36.57Zm-4-24.42H67.15a8.62,8.62,0,0,0-6.2,2.59,9.06,9.06,0,0,0-1.88,2.81,8.49,8.49,0,0,0-.68,3.42v2.11a8.49,8.49,0,0,0,.68,3.42,8.76,8.76,0,0,0,4.66,4.66,8.5,8.5,0,0,0,3.42.69h4a8.58,8.58,0,0,0,3.43-.69,9.07,9.07,0,0,0,2.78-1.87A8.82,8.82,0,0,0,79.26,142,8.5,8.5,0,0,0,80,138.6Z"/><path class="cls-3" d="M115.44,87.26a7.15,7.15,0,0,0-2.83.56,7.39,7.39,0,0,0-2.29,1.56,7.27,7.27,0,0,0-2.12,5.16v7.14H120v5.76H108.2v44.65h-6V107.44H93v-5.76h9.11V94.84a13.34,13.34,0,0,1,8.12-12.31,13,13,0,0,1,5.17-1H121v5.76Z"/><path class="cls-3" d="M159.57,144a14.78,14.78,0,0,1-7.9,7.9,14.49,14.49,0,0,1-5.76,1.16h-4a14.49,14.49,0,0,1-5.76-1.16,14.78,14.78,0,0,1-7.9-7.9,14.39,14.39,0,0,1-1.16-5.76V115.52a14.32,14.32,0,0,1,1.16-5.76,14.76,14.76,0,0,1,7.9-7.91,14.49,14.49,0,0,1,5.76-1.15h4a14.49,14.49,0,0,1,5.76,1.15,14.76,14.76,0,0,1,7.9,7.91,14.32,14.32,0,0,1,1.16,5.76v11.86H133.11V138.6a8.5,8.5,0,0,0,.69,3.42,8.67,8.67,0,0,0,4.66,4.66,8.5,8.5,0,0,0,3.42.69h4a8.5,8.5,0,0,0,3.42-.69A8.67,8.67,0,0,0,154,142a8.5,8.5,0,0,0,.69-3.42v-3.34l6,1v2A14.39,14.39,0,0,1,159.57,144Zm-4.89-28.85a8.57,8.57,0,0,0-.69-3.42,9,9,0,0,0-1.87-2.78,8.82,8.82,0,0,0-2.79-1.87,8.5,8.5,0,0,0-3.42-.69h-4a8.5,8.5,0,0,0-3.42.69,8.82,8.82,0,0,0-2.79,1.87,9,9,0,0,0-1.87,2.78,8.57,8.57,0,0,0-.69,3.42v7.48h21.57Z"/><path class="cls-3" d="M208,152.09,188.89,122h-8.71v30.13h-6.35V81.5h22.4A16.94,16.94,0,0,1,203,82.85a17.45,17.45,0,0,1,5.51,3.72,17.32,17.32,0,0,1,5.07,12.31v5.71a17.36,17.36,0,0,1-10.58,16,16.94,16.94,0,0,1-6.74,1.35l19.15,30.13Zm-.84-53.21a11,11,0,0,0-.88-4.41,11.8,11.8,0,0,0-2.41-3.59,11.17,11.17,0,0,0-3.57-2.44,11,11,0,0,0-4.41-.89H180.18v28.36h15.75a11,11,0,0,0,4.41-.89,11.3,11.3,0,0,0,3.57-2.43,12,12,0,0,0,2.41-3.6,10.94,10.94,0,0,0,.88-4.4Z"/><path class="cls-3" d="M227,89.57V81.5h7v8.07Zm.5,62.52V101.68h6v50.41Z"/><path class="cls-3" d="M279.32,152.09,276,147a15.32,15.32,0,0,1-5.17,4.46,14.27,14.27,0,0,1-6.8,1.65h-1.52a14.49,14.49,0,0,1-5.76-1.16,14.78,14.78,0,0,1-7.9-7.9,14.39,14.39,0,0,1-1.16-5.76V115.52a14.32,14.32,0,0,1,1.16-5.76,14.76,14.76,0,0,1,7.9-7.91,14.49,14.49,0,0,1,5.76-1.15H264a14.45,14.45,0,0,1,6.3,1.38,14.62,14.62,0,0,1,5,3.84V81.5h6v70.59Zm-4-36.92a8.57,8.57,0,0,0-.69-3.42,9,9,0,0,0-1.87-2.78,8.82,8.82,0,0,0-2.79-1.87,8.5,8.5,0,0,0-3.42-.69h-4a8.5,8.5,0,0,0-3.42.69,8.82,8.82,0,0,0-2.79,1.87,9,9,0,0,0-1.87,2.78,8.57,8.57,0,0,0-.69,3.42V138.6a8.5,8.5,0,0,0,.69,3.42,8.67,8.67,0,0,0,4.66,4.66,8.5,8.5,0,0,0,3.42.69h4a8.5,8.5,0,0,0,3.42-.69A8.67,8.67,0,0,0,274.6,142a8.5,8.5,0,0,0,.69-3.42Z"/><path class="cls-3" d="M326,144a14.87,14.87,0,0,1-7.9,7.9,14.56,14.56,0,0,1-5.76,1.16h-4a14.49,14.49,0,0,1-5.76-1.16,14.78,14.78,0,0,1-7.9-7.9,14.56,14.56,0,0,1-1.16-5.76V115.52a14.49,14.49,0,0,1,1.16-5.76,14.76,14.76,0,0,1,7.9-7.91,14.49,14.49,0,0,1,5.76-1.15h4a14.56,14.56,0,0,1,5.76,1.15,14.85,14.85,0,0,1,7.9,7.91,14.49,14.49,0,0,1,1.15,5.76v11.86H299.51V138.6a8.5,8.5,0,0,0,.69,3.42,8.7,8.7,0,0,0,4.65,4.66,8.5,8.5,0,0,0,3.42.69h4a8.57,8.57,0,0,0,3.42-.69,9.07,9.07,0,0,0,2.78-1.87,8.82,8.82,0,0,0,1.87-2.79,8.5,8.5,0,0,0,.69-3.42v-3.34l6.05,1v2A14.56,14.56,0,0,1,326,144Zm-4.9-28.85a8.57,8.57,0,0,0-.69-3.42,8.78,8.78,0,0,0-1.87-2.78,8.89,8.89,0,0,0-2.78-1.87,8.57,8.57,0,0,0-3.42-.69h-4a8.5,8.5,0,0,0-3.42.69,8.67,8.67,0,0,0-2.78,1.87,8.78,8.78,0,0,0-1.87,2.78,8.57,8.57,0,0,0-.69,3.42v7.48h21.56Z"/></g></g></svg>