<svg xmlns="http://www.w3.org/2000/svg" viewBox="0 0 522.88 246.95"><defs><style>.cls-1{fill:#fff;}.cls-2,.cls-3,.cls-4,.cls-5{fill:none;stroke:#fff;stroke-miterlimit:10;}.cls-2{stroke-width:0.76px;}.cls-3{stroke-width:0.85px;}.cls-4{stroke-width:0.68px;}.cls-5{stroke-width:0.31px;}</style></defs><title>Asset 3</title><g id="Layer_2" data-name="Layer 2"><g id="Layer_1-2" data-name="Layer 1"><path class="cls-1" d="M508.8,143.87a.41.41,0,0,0,.22,0,8.81,8.81,0,0,1,1.76.69,4.87,4.87,0,0,0,2,.17.39.39,0,0,0,.36-.43c.34-2.71,2.21-5,2.58-7.75a9.17,9.17,0,0,0-.75-6,.38.38,0,0,0-.35-.31,12.7,12.7,0,0,0-3.53.27c-.43.1-.29.72.11.73a9.12,9.12,0,0,1,0,6.72,28.18,28.18,0,0,1-2.47,5.13A.37.37,0,0,0,508.8,143.87Zm3.48-6.45a9.18,9.18,0,0,0-.32-6.24,12,12,0,0,1,2.39-.14c1.34,2.45.89,5.84-.07,8.35-.62,1.61-1.52,2.94-1.83,4.63a4.1,4.1,0,0,1-2-.42,5.73,5.73,0,0,0-.83-.33A29.53,29.53,0,0,0,512.28,137.42Z"/><path class="cls-1" d="M522.24,160.63c-1.25-1-2.42-.81-3.88-1.3l-.21-.08c.65-1.76.66-3.75-1-4.89a25.88,25.88,0,0,0-5.22-2.65c.27-1.08.64-2.34,1.11-3.77a.41.41,0,0,0,0-.19,13.33,13.33,0,0,0,5-8.53c1.53-8.73-4.36-16.81-13.42-18.4-3.65-.63-6,.11-7.52,2.33a9.67,9.67,0,0,0-5.21,3.46,17.75,17.75,0,0,0-4.12,10.13c-.28,3.69.67,6.93,2.54,8.66a11,11,0,0,0,3.28,2.14,4.91,4.91,0,0,0,1.48,1.46c-.58,1.12-2.25,1.37-3.37,1.61a35.51,35.51,0,0,0-3.7.87,14.14,14.14,0,0,0-4.86,3.39c-.84-.39-1.76-.51-2.61-.88a4.47,4.47,0,0,0-2.26-.6l-.39.06a7,7,0,0,1-1.29-2.21c-.09-.21-.16-.44-.24-.66a9.86,9.86,0,0,0-.64-1.58,5,5,0,0,0-1.69-1.63,8.86,8.86,0,0,0-2.35-1.16h0a3.44,3.44,0,0,0-1.37-.24,1.25,1.25,0,0,0-.45.13c-.25.13-.6.45-.34,1.24a13.12,13.12,0,0,0-1.48-.43l-.77-.2-.34-.11a3.45,3.45,0,0,0-1.05-.22h-.16a1.44,1.44,0,0,0-1.08.57,1,1,0,0,0,0,.77h-.28a1.73,1.73,0,0,0-.91.39.74.74,0,0,0-.18.83.93.93,0,0,0,.2.41,1,1,0,0,0-.66.47,1.16,1.16,0,0,0,.13,1,.74.74,0,0,0,.47.29,1.28,1.28,0,0,0-.27.68,1.47,1.47,0,0,0,0,.47,10.65,10.65,0,0,0-1.1-.59l0,0a3.61,3.61,0,0,0-1.42-.41,1.3,1.3,0,0,0-.49.09c-.29.1-.7.41-.51,1.27a14.25,14.25,0,0,0-1.52-.62l-.79-.3-.36-.16a3.44,3.44,0,0,0-1.08-.36h-.17a1.5,1.5,0,0,0-1.21.48,1.1,1.1,0,0,0-.08.82h0l-.28,0a1.92,1.92,0,0,0-1,.3.81.81,0,0,0-.29.86,1.1,1.1,0,0,0,.17.46,1.18,1.18,0,0,0-.76.43,1.25,1.25,0,0,0,0,1.1.85.85,0,0,0,.47.37,1.27,1.27,0,0,0-.37.69,1.48,1.48,0,0,0,.05.91,1.36,1.36,0,0,0,.58.68,11.37,11.37,0,0,1,1.78,1.61c.14.16.28.33.41.5l.36.43c.1.12.21.23.32.34s.28.29.41.45.33.44.49.67.33.46.5.68a7.44,7.44,0,0,0,1.89,1.86c.6.37,1.24.69,1.86,1,.26.13.52.26.77.4l.11,0h0a2.31,2.31,0,0,0,.17.82,7.88,7.88,0,0,0,1.22,1.6c.89,1.1,1.66,2.29,2.5,3.44l.83,1.14a14,14,0,0,1-6.49-3.58,16.21,16.21,0,0,0-2.72-1.94c-1-.62-1.88-1.4-2.81-2.1a26.33,26.33,0,0,0-6.17-3.61,7.62,7.62,0,0,0-5.06-.49,7.76,7.76,0,0,0-2.12,1.41c-3.85,2.93-7.8,5.89-11,9.55-1.78,2.07-3.81,4-5.75,5.87-1.05,1.05-2.1,2.09-3.12,3.16a27.56,27.56,0,0,1-1.9,2.12,1.38,1.38,0,0,1-.23.16.4.4,0,0,0-.32.09c-.25,0-.47-.2-.81-.46a9.25,9.25,0,0,0-2.71-1.59c-1.94-.67-3.19.17-4.66,1.35a11.09,11.09,0,0,1-1.64.91c-.24.14-.4.17-.51.47-.18.49.33,1.26.55,1.66a24.13,24.13,0,0,0,4.57,5.74,15.43,15.43,0,0,1-1.6,1c-.3.16-.48.17-.59.54-.17.6.55,1.61.84,2.09a19.24,19.24,0,0,0,1.24,1.85,33.07,33.07,0,0,0,6.89,6.63,21.05,21.05,0,0,0,3.14,1.91c.43.2.88.37,1.29.61s.86.72,1.39.74c.87,0,1.48-1,2-1.52,1.17-1.16,2.53-2.14,3.69-3.32,1.53-1.55,2.69-3.4,4.17-5,.34-.37.68-.73,1-1.09a.47.47,0,0,0,.44-.47q1.72-1.78,3.49-3.53c1.52-1.51,3-3,4.63-4.46.2-.18.39-.37.6-.54l.11-.08a1.47,1.47,0,0,1,1.83-.25c1.56.93,2.64,3.06,3.78,4.42a.16.16,0,0,0,.13.07,45.64,45.64,0,0,0,6.63,5.78,34.16,34.16,0,0,1,2.83,2.26c.73.71,1.38,1.48,2.07,2.22a.34.34,0,0,0,.29.31c.28.3.58.6.88.88,3.5,3.17,7.95,5.16,12.72,4.36,3.17-.54,5.85-2.16,8.48-3.89.25-.17.65-.54,1-.57.59-.06,1.67.78,2.17,1.06a55.5,55.5,0,0,0,6,3.14c1.43.59,3.33,1.32,4.79.45a16.7,16.7,0,0,0,4.39-4.36c3-4.06,5-8.88,6.78-13.59,1.92-5.07,3.6-10.27,6-15.15.51-1.06,2.83-8.31,3.44-9.33s1.48-2,2.05-3C523.07,161.48,522.8,161.05,522.24,160.63ZM512,152.22s.08.1.35.15a4.84,4.84,0,0,1,1.06.49c1.36.65,3.72,1.44,4.45,2.8a4.67,4.67,0,0,1-.08,3.19.61.61,0,0,0-.09.22s-.07-.09-.3-.12a5,5,0,0,1-1.09-.42c-1.05-.41-3.65-1-4.68-2.12a2.94,2.94,0,0,1-.18-.55,3.85,3.85,0,0,1,0-1.27c0-.22.11-.45.17-.67a6.45,6.45,0,0,1,.32-1.44A.58.58,0,0,0,512,152.22Zm-18-5.14-.17-.07h0a10.38,10.38,0,0,1-3.12-2c-3.79-3.51-3-12.75,1.63-18,2.16-2.48,4.17-3.38,6-3.38a6.23,6.23,0,0,1,2.05.36h.06l.32.13.32.13.07,0a21.92,21.92,0,0,1,4.75,3.36,13.31,13.31,0,0,1,2.13,2.17,7.82,7.82,0,0,1,1.6,4.85,12.22,12.22,0,0,1-2.13,6.17v0c-.13.21-.26.4-.39.6a2.43,2.43,0,0,0-.14.2l-.3.41-.15.2-.41.52-.2.24-.24.27-.27.29-.14.15C502,147.17,497.77,148.5,494.05,147.08Zm.61.82a8.83,8.83,0,0,0,3.72.26,12.35,12.35,0,0,0,6.72-3.39l.17-.16.28-.28c.14-.14.28-.28.41-.43l.19-.2.31-.36c.05-.07.11-.13.17-.2s.29-.36.43-.55l.09-.11.37-.51.12-.19c.14-.2.28-.41.41-.62v0a12.89,12.89,0,0,0,2.23-6.4,8.44,8.44,0,0,0-.35-2.61,10.89,10.89,0,0,0-3.59-4.94c-1.76-1.5-3.84-3.27-6.18-3.92h-.06l-.38-.09-.19,0-.15,0a5.92,5.92,0,0,0-1.46-.08c1.36-1.68,3.44-2.18,6.61-1.62,8.73,1.53,14.41,9.3,12.94,17.71a12.64,12.64,0,0,1-6.28,9.17,17.58,17.58,0,0,1-11.66,1.63A9.08,9.08,0,0,1,494.66,147.9Zm-10,6.28a12.59,12.59,0,0,1,4.37-2.54c1.45-.37,3-.54,4.39-1a4.58,4.58,0,0,0,1.41-.67c.43-.34.33-.49.79-.41.73.14,1.51.65,2.24.85a19.71,19.71,0,0,0,2.86.52,17.27,17.27,0,0,0,11.53-2.41,43.38,43.38,0,0,0-1,4.34,11.84,11.84,0,0,0-.54,2.85.23.23,0,0,0-.13.14c-1.18,3.46-1.26,7.29-1.65,10.9a32.73,32.73,0,0,1-.87,5.3,27.69,27.69,0,0,1-2.63,5.59,66.92,66.92,0,0,1-3.59,5.73c-1.34,2-2.46,4.14-3.91,6.06-.82,1.08-1.72,2.12-2.63,3.14-.78-.25-1-1.7-1.43-2.26a2.84,2.84,0,0,0-1.09-.75c-1.88-.84-3.75-.7-4.58-3a.22.22,0,0,0,0-.08,26.24,26.24,0,0,0,3.07-2.61,41.31,41.31,0,0,0,4.79-5.36c1.55-2,3-4.13,4.5-6.19,1.36-1.86,3.19-3.58,4.26-5.61a13.09,13.09,0,0,0,1.59-4.89c.12-1.72-1-3.44-2.08-4.67-2.88-3.19-8.9-3.26-11.79,0a31.89,31.89,0,0,0-2.59,3.6c-.6-1.78-3-3.28-4.72-2.33-3.85,2.13-5.34,5.74-7.71,9.2a.28.28,0,0,0-.05.21,11.69,11.69,0,0,1-1.47-1.34l-.88-1c1.75-2.47,3.6-4.93,5.41-7,.8-.84,1.6-1.68,2.34-2.56C483.52,155.23,484.12,154.67,484.7,154.18Zm4.86,7.11a16.39,16.39,0,0,1-1.23,1.55c-1.93,2.1-3.88,4.18-5.81,6.28-1.41.69-3.15,0-4.58-1a.35.35,0,0,0,.26-.16c1.52-2.23,2.5-4.81,4.48-6.7a14.7,14.7,0,0,1,2.47-1.82,2.73,2.73,0,0,1,4.17,1.64A.34.34,0,0,0,489.56,161.29Zm-16.59-.5c.31.55,1.11,1,1.56,1.4l1.22,1.22c-.37.5-.74,1-1.09,1.52a22.84,22.84,0,0,0-3.6-3.21,6.94,6.94,0,0,0-3.21-1.51l0-.05a7.7,7.7,0,0,1-1.14-2.53c-.06-.24-.11-.48-.17-.73a10.33,10.33,0,0,0-.5-1.75,4.82,4.82,0,0,0-.35-.63l0,0,.44.42c.12.13.24.25.37.37l.33.28.43.37c.18.19.35.38.52.58l.54.58a7,7,0,0,0,1.94,1.54c.6.28,1.23.52,1.84.74l.69.27A1.76,1.76,0,0,0,473,160.79Zm8.59-6c.42.09.93.2,1,.35a.42.42,0,0,1,0,.35l-1.19,1.21a63.56,63.56,0,0,0-5.39,6.4c-.16-.17-.33-.33-.49-.49,0,0,0,0,0,0a21.57,21.57,0,0,1,6-7.7A.17.17,0,0,0,481.56,154.74Zm-.56-.11h0a21.73,21.73,0,0,0-5.85,7.59l-.34-.35c-.52-.51-1.52-1-1.58-1.77a6.42,6.42,0,0,1,1.3-3.28,6.82,6.82,0,0,1,3.21-2.89C479,153.57,479.91,154.28,481,154.63Zm-17.63-4a.53.53,0,0,1-.15-.39c0-.24.41-.36.53-.4l.14,0a1.51,1.51,0,0,1,.54,0l.22.07.35.1.3.11a.23.23,0,0,0,.11,0h0l.64.18.42.11a7.39,7.39,0,0,1,1.62.56,5.36,5.36,0,0,1,1.82,1.73.2.2,0,0,0,.2.09.28.28,0,0,0,.2-.15.27.27,0,0,0,0-.26,5.75,5.75,0,0,0-2.23-2,9.75,9.75,0,0,0-1.88-.59l-.77-.2-.35-.11a6,6,0,0,0-.66-.19l-.21-.06,0,0a.74.74,0,0,1-.42-.27.86.86,0,0,1-.06-.23.22.22,0,0,1,.1-.26.93.93,0,0,1,.51-.21,2.2,2.2,0,0,1,.83.12l.11,0,.09,0a4.42,4.42,0,0,0,.64.22l.17.05a.14.14,0,0,0,.09,0h.05l.35.1a7,7,0,0,1,2,.76,7.49,7.49,0,0,1,2.21,2.15.19.19,0,0,0,.19.09.27.27,0,0,0,.18-.41,8.22,8.22,0,0,0-2-2.08,7.06,7.06,0,0,0-2.31-1l-1.11-.31-.28-.08h0a.72.72,0,0,1-.37-.33.36.36,0,0,1,0-.48,1.13,1.13,0,0,1,.57-.23h0a2.33,2.33,0,0,1,.85.16l.27.08,1.09.31.36.09a7.37,7.37,0,0,1,1.69.6,5.42,5.42,0,0,1,1.74,1.69.22.22,0,0,0,.2.09.27.27,0,0,0,.2-.16.25.25,0,0,0,0-.25,5.76,5.76,0,0,0-2-1.86h0c-.09-.16-.37-.67-.27-.94a.3.3,0,0,1,.2-.16.94.94,0,0,1,.24-.06,3.11,3.11,0,0,1,1.35.28l.07,0a9.72,9.72,0,0,1,2.1,1.08,4.56,4.56,0,0,1,1.48,1.45,8.77,8.77,0,0,1,.61,1.52c.1.29.2.59.32.87a7,7,0,0,0,1.12,1.92,7.84,7.84,0,0,0-3.41,3.31,9.31,9.31,0,0,0-1.06,2.3l-.67-.25a8,8,0,0,1-3-1.56c-.3-.29-.59-.61-.87-.92a13.51,13.51,0,0,0-1.25-1.26l-.78-.68a12.46,12.46,0,0,0-2.38-1.81.77.77,0,0,1-.4-.61,1.07,1.07,0,0,1,.09-.55.38.38,0,0,1,.29-.2.79.79,0,0,1,.29,0,7.72,7.72,0,0,1,1.38.58,12.11,12.11,0,0,1,3,2,.17.17,0,0,0,.16.06.23.23,0,0,0,.2-.17.26.26,0,0,0-.06-.28,12,12,0,0,0-3.1-2.1l-.16-.08a5.09,5.09,0,0,0-1.22-.49h0a1.36,1.36,0,0,0-.57-.18A1,1,0,0,1,463.37,150.58Zm-1.45,15.13c-.25-.14-.52-.27-.78-.4a8.43,8.43,0,0,1-3-2c-.29-.34-.55-.71-.81-1.07a14.13,14.13,0,0,0-1.19-1.49l-.74-.81a13.52,13.52,0,0,0-2.33-2.2.88.88,0,0,1-.35-.7,1.1,1.1,0,0,1,.17-.58.39.39,0,0,1,.32-.17.8.8,0,0,1,.31.07,7.76,7.76,0,0,1,1.39.77,12.31,12.31,0,0,1,2.9,2.48.25.25,0,0,0,.17.08.27.27,0,0,0,.24-.16.33.33,0,0,0,0-.31,12.93,12.93,0,0,0-3.06-2.58l-.15-.11a5.34,5.34,0,0,0-1.24-.67h0a1.44,1.44,0,0,0-.57-.25,1.23,1.23,0,0,1-.49-.22.59.59,0,0,1-.11-.44c0-.25.47-.33.61-.35h.15a1.66,1.66,0,0,1,.57.12l.23.09.35.15.31.16a.23.23,0,0,0,.11,0h0l.65.26.43.17a7.29,7.29,0,0,1,1.67.78,5.8,5.8,0,0,1,1.73,2,.21.21,0,0,0,.19.12.27.27,0,0,0,.23-.14.26.26,0,0,0,0-.28,5.93,5.93,0,0,0-2.14-2.37,11.33,11.33,0,0,0-1.92-.85l-.8-.3-.35-.16a4.92,4.92,0,0,0-.69-.27l-.2-.1,0,0c-.18-.09-.36-.17-.42-.34a1.87,1.87,0,0,1,0-.25.23.23,0,0,1,.14-.26A1,1,0,0,1,454,153a2.3,2.3,0,0,1,.87.23l.12,0,.09,0a4.71,4.71,0,0,0,.65.3l.18.08.09,0h0l.37.14a7.79,7.79,0,0,1,2,1,8.07,8.07,0,0,1,2.09,2.54.23.23,0,0,0,.2.12.27.27,0,0,0,.23-.14.26.26,0,0,0,0-.27,8.71,8.71,0,0,0-1.92-2.45,7.57,7.57,0,0,0-2.34-1.3l-1.14-.46-.28-.12h0a.84.84,0,0,1-.35-.39.39.39,0,0,1,.09-.51,1.2,1.2,0,0,1,.64-.17h0a2.47,2.47,0,0,1,.89.27l.27.12,1.13.45.37.14a7.6,7.6,0,0,1,1.72.83,5.83,5.83,0,0,1,1.65,2,.22.22,0,0,0,.2.12.27.27,0,0,0,.23-.14.28.28,0,0,0,0-.28,6.27,6.27,0,0,0-1.88-2.2h0c-.08-.19-.31-.76-.17-1a.31.31,0,0,1,.22-.15,1.18,1.18,0,0,1,.27,0,3.44,3.44,0,0,1,1.4.45l.06,0a9.32,9.32,0,0,1,2.11,1.4,4.72,4.72,0,0,1,1.4,1.71,10,10,0,0,1,.48,1.69c.07.31.14.64.23,1a7.84,7.84,0,0,0,1,2.16l-.26.05a7.59,7.59,0,0,0-3.94,3A6,6,0,0,0,461.92,165.71Zm2.05,3.13a14.47,14.47,0,0,1-1.44-1.81,3.45,3.45,0,0,1,.43-2.88c1-2,3.74-4.31,6-3.18a12.27,12.27,0,0,1,1.56.92,20.94,20.94,0,0,0-6.5,6.84.22.22,0,0,0,.38.22,20.26,20.26,0,0,1,6.39-6.7.21.21,0,0,0,.08-.11,24.77,24.77,0,0,1,3,2.66c1.5,1.51,2.76,3.23,4.72,4.21,1.23.61,2.78,1.12,4.06.51l.05,0h0l0,0h0l0,0c2.59-2.81,5.57-5.51,7.69-8.7,1.08-1.64,2.09-3.58,3.83-4.61a9.24,9.24,0,0,1,7.22-.41,7.42,7.42,0,0,1,4.28,4.84c.46,1.77-.48,4-1.24,5.59s-2.29,3.08-3.42,4.58c-1.32,1.75-2.58,3.55-3.86,5.33-2.67,3.68-5.56,7.24-9.32,9.86a4,4,0,0,1-3.86.77,27.84,27.84,0,0,1-8.3-4.24,43.66,43.66,0,0,1-8.4-8.77C466.27,172.07,465.17,170.42,464,168.84Zm-50.89,13.3a4.64,4.64,0,0,1,3.83.94c.56.36,1.18,1.18,1.81,1.33a.65.65,0,0,0,.19,0,5.8,5.8,0,0,0,1.26,2.81c.31.38.84-.16.53-.53a4.91,4.91,0,0,1-1.09-2.55,7.8,7.8,0,0,0,.59-.7,56.59,56.59,0,0,1,4-4.21.41.41,0,0,0,.07.27,22.85,22.85,0,0,0,4.39,4.87.51.51,0,0,0,.16.09l-.44.53c-.8,1-1.59,2-2.38,3l-.34.41c-.72.9-1.44,1.8-2.15,2.71-.24.31-.49.79-.78,1.16a3,3,0,0,1-.32.3.75.75,0,0,1-1.07,0c-.16-.12-.31-.26-.46-.37a.1.1,0,0,0-.05,0l-.14-.11a6.46,6.46,0,0,0-3.86-1.55,3.15,3.15,0,0,0-1,.19c-2.05-1.78-4.58-4.08-5.05-6.81l0-.07A8.22,8.22,0,0,1,413.08,182.14Zm-3.33,4.24a1.68,1.68,0,0,1-.1-2,3,3,0,0,1,.74-.41c.51,2.73,3,5,5,6.82a6.62,6.62,0,0,0-1,.68l-.27.21A25.26,25.26,0,0,1,409.75,186.38Zm15.57,19.83c-.37-.14-.79-.35-1.15-.51a19.26,19.26,0,0,1-3.11-1.81,32.33,32.33,0,0,1-6.15-5.59,20.92,20.92,0,0,1-2.22-3.08c-.37-.66-.82-1.22-.06-2l.24-.18h0c2.14,2.59,4.16,5.66,6.86,7.7,2.51,1.9,5.52,3,8,5l.05,0A1.84,1.84,0,0,1,425.32,206.21Zm11.33-9.86a30,30,0,0,0-2.59,2.92,27,27,0,0,1-2.7,3.24c-1.06,1-2.27,1.92-3.32,3l0,0c-2.35-1.91-5.19-3-7.65-4.74-2.84-2-4.93-5.19-7.13-7.87a4.6,4.6,0,0,0,.79-.48,6.38,6.38,0,0,1,2.17-1.26h0l.19-.05a4.4,4.4,0,0,1,3.05.66,15,15,0,0,0,1.87,1.41,1.15,1.15,0,0,0,.53.15,5.76,5.76,0,0,0,1.29,3c.31.38.84-.16.53-.53a4.94,4.94,0,0,1-1.09-2.57.36.36,0,0,0,0-.11,9.31,9.31,0,0,0,1.47-1.92l.6-.77.83-1,1.23-1.53.19-.23c.66,2,2.28,3.33,3.91,4.59a57.92,57.92,0,0,0,6,4.06Zm49.79,6.21a.18.18,0,0,0-.05.15c-.37.23-.73.54-1,.72a28,28,0,0,1-3.75,2.18A14,14,0,0,1,466.86,204a21.64,21.64,0,0,1-2.37-2.11l0,0a7.5,7.5,0,0,1,3.48-4.11,3,3,0,0,0,1.76-2.43.38.38,0,0,0-.75,0c0,1.49-2.29,2.21-3.24,3.12a7.61,7.61,0,0,0-1.84,2.86,34.58,34.58,0,0,0-3.61-3.44,54.58,54.58,0,0,1-7.91-6.8.21.21,0,0,0-.1-.06c-.9-1.1-1.71-2.28-2.66-3.33a5.12,5.12,0,0,0-1.27-1.13s0,0,0,0a15.55,15.55,0,0,1,2.66-5.2c.29-.38-.25-.9-.55-.52a16.84,16.84,0,0,0-2.84,5.54,1.86,1.86,0,0,0-1.17.38,5,5,0,0,1-.7-2.58c0-.48-.73-.58-.74-.1a5.77,5.77,0,0,0,.85,3.14l0,0a7.72,7.72,0,0,1-2.76-4.5c-.1-.47-.82-.27-.72.2a8.35,8.35,0,0,0,2.94,4.83l-.31.31c-2.6,2.41-5.12,4.92-7.57,7.48a55.29,55.29,0,0,1-5.25-3.46c-1.74-1.29-3.8-2.7-4.47-4.87a.4.4,0,0,0-.3-.29q1.92-2.39,3.85-4.74l.51-.62c1.81-2.23,3.66-4.44,5.36-6.75a38.25,38.25,0,0,1,3.24-3.71l.28-.27a26.53,26.53,0,0,1,2.16-1.81,4.92,4.92,0,0,1,.81-.5,6.48,6.48,0,0,1,2.59-.57,12.07,12.07,0,0,1,4.48,1,25.84,25.84,0,0,1,6.78,4.64c2.24,1.93,7.41,4.12,8.41,4.12a3.1,3.1,0,0,0,2-1c.7-.71,1-2,0-2s0,3-3,2c-.43-.15-5.56-2.11-5.85-2.36-2.93-2.64-6.42-5.76-10.32-6.63a7.45,7.45,0,0,0-5.59.48,19.52,19.52,0,0,0-5.47,5.22c-.79,1-1.55,2-2.34,3l-.38.47q-2,2.49-4,5l-1.58,1.93a.46.46,0,0,0-.07-.07,22.27,22.27,0,0,1-4.24-4.69.44.44,0,0,0-.46-.19,85.72,85.72,0,0,0,6.06-6.15c3.06-3.58,6.94-6.45,10.67-9.3a8.27,8.27,0,0,1,2.17-1.48c2-.72,4.39.21,6.2,1.13a34.54,34.54,0,0,1,5.41,3.47,23,23,0,0,0,2.43,1.75,15.65,15.65,0,0,1,3.58,3,9.6,9.6,0,0,0,6,2.57,46.38,46.38,0,0,0,7.56,8.15,28,28,0,0,0,5.26,3.4c1.67.83,4,2.12,5.92,2a4.45,4.45,0,0,0,1.78-.59,4.76,4.76,0,0,0,3.56,3,6.15,6.15,0,0,1,1.74.58c.72.46.72,1.17,1.09,1.85a2,2,0,0,0,.83.93c-.9,1-1.82,2-2.7,3ZM521,163.74c-2.66,4-6.16,14.86-7.84,19.38a133.9,133.9,0,0,1-6,14.82,31.89,31.89,0,0,1-3.9,6c-1.28,1.53-3.06,3.74-5.25,3.48s-4.57-1.67-6.59-2.79c-.91-.51-1.81-1-2.73-1.53a4.08,4.08,0,0,0-1.5-.72h0c2.71-3,5.54-6,8.21-9.11a.42.42,0,0,0,.38-.46c.79-.93,1.57-1.85,2.32-2.8,1.6-2,2.79-4.34,4.24-6.48,1.26-1.88,2.51-3.73,3.58-5.72a34.29,34.29,0,0,0,2.51-5.13,25.23,25.23,0,0,0,.92-4.81c.47-3.83.47-7.91,1.66-11.62a2.16,2.16,0,0,0,.54.63,2,2,0,0,0,.89.75c1.55.68,3.18,1.2,4.79,1.73s2.64.41,4.12,1.19c.32.17,1,.48,1.13.9C522.56,162.08,521.33,163.25,521,163.74Z"/><path class="cls-1" d="M491.32,165.17a11.22,11.22,0,0,1,4,1.66c.46.35.79.83,1.22,1.2s1.12.54,1.52.93c.12.13.34-.05.21-.18-.39-.39-.85-.45-1.3-.76s-.94-1-1.49-1.42a11.08,11.08,0,0,0-3.92-1.66h0a12.83,12.83,0,0,0,2.67-3.61c2.72.13,4.89,1.7,6.78,3.54a4.52,4.52,0,0,0-1.06,1.93,3.63,3.63,0,0,1-.77,1.4,9.17,9.17,0,0,0-.92.84c-.11.15.12.31.23.17.51-.67,1.16-1,1.52-1.78a6,6,0,0,1,1.23-2.39.21.21,0,0,0,0-.06.12.12,0,0,0,0-.2c-2-1.94-4.24-3.61-7.1-3.73a.14.14,0,0,0-.14.1.13.13,0,0,0-.11.08,12.39,12.39,0,0,1-2.59,3.5.14.14,0,0,0,0,.19C491.22,164.94,491.17,165.13,491.32,165.17Z"/><circle class="cls-2" cx="36.63" cy="51.98" r="36.25"/><circle class="cls-2" cx="24.54" cy="39.89" r="2.27"/><circle class="cls-2" cx="42.29" cy="30.45" r="1.13"/><circle class="cls-2" cx="16.24" cy="65.57" r="2.27"/><circle class="cls-2" cx="42.29" cy="68.21" r="4.15"/><circle class="cls-2" cx="51.35" cy="47.07" r="1.89"/><circle class="cls-2" cx="20.39" cy="23.66" r="0.38"/><circle class="cls-2" cx="10.57" cy="36.5" r="1.13"/><circle class="cls-2" cx="67.97" cy="60.66" r="1.13"/><circle class="cls-2" cx="64.57" cy="33.85" r="3.02"/><circle class="cls-2" cx="29.08" cy="85.21" r="1.51"/><path class="cls-3" d="M276.05,226.94l15.83-3.83L276,218.93a7.77,7.77,0,0,0-2.56-2.54l-4-16.66L265,216.78a7.67,7.67,0,0,0-1.79,1.85l-16.78,4.06L263,227.08a7.9,7.9,0,0,0,2.14,2.21L269,245.23l4.09-15.51A7.7,7.7,0,0,0,276.05,226.94Z"/><path class="cls-3" d="M373.05,28.94l15.83-3.83L373,20.93a7.77,7.77,0,0,0-2.56-2.54l-4-16.66L362,18.78a7.67,7.67,0,0,0-1.79,1.85l-16.78,4.06L360,29.08a7.9,7.9,0,0,0,2.14,2.21L366,47.23l4.09-15.51A7.7,7.7,0,0,0,373.05,28.94Z"/><path class="cls-4" d="M106.18,211.56l12.7-3.07-12.71-3.36a6.15,6.15,0,0,0-2.06-2l-3.23-13.37-3.6,13.67a6.36,6.36,0,0,0-1.44,1.49l-13.46,3.26,13.36,3.52a6.27,6.27,0,0,0,1.71,1.77l3.09,12.79,3.28-12.44A6.17,6.17,0,0,0,106.18,211.56Z"/><path class="cls-5" d="M127.14,33.59l5.74-1.38-5.75-1.52a2.82,2.82,0,0,0-.93-.92l-1.46-6-1.63,6.18a3,3,0,0,0-.65.67l-6.08,1.47,6,1.6a2.93,2.93,0,0,0,.77.8l1.4,5.78,1.48-5.63A2.73,2.73,0,0,0,127.14,33.59Z"/><path class="cls-5" d="M447.14,73.59l5.74-1.38-5.75-1.52a2.82,2.82,0,0,0-.93-.92l-1.46-6-1.63,6.18a3,3,0,0,0-.65.67l-6.08,1.47,6,1.6a2.93,2.93,0,0,0,.77.8l1.4,5.78,1.48-5.63A2.73,2.73,0,0,0,447.14,73.59Z"/><path class="cls-5" d="M357.14,224.59l5.74-1.38-5.75-1.52a2.82,2.82,0,0,0-.93-.92l-1.46-6-1.63,6.18a3,3,0,0,0-.65.67l-6.08,1.47,6,1.6a2.93,2.93,0,0,0,.77.8l1.4,5.78,1.48-5.63A2.73,2.73,0,0,0,357.14,224.59Z"/></g></g></svg>