<svg enable-background="new 0 0 448 512" viewBox="0 0 448 512" xmlns="http://www.w3.org/2000/svg"><path d="m288 128h-128c-35.3 0-64 28.7-64 64v16c0 61.8 50.2 112 112 112h32c61.8 0 112-50.2 112-112v-16c0-35.3-28.7-64-64-64zm32 80c0 44.1-35.9 80-80 80h-32c-44.1 0-80-35.9-80-80v-16c0-17.6 14.3-32 32-32h128c17.7 0 32 14.4 32 32zm-128-32-12 36-36 12 36 12 12 36 12-36 36-12-36-12zm112 224h-160c-26.5 0-48 21.5-48 48v56c0 4.4 3.6 8 8 8h16c4.4 0 8-3.6 8-8v-56c0-8.8 7.2-16 16-16h160c8.8 0 16 7.2 16 16v56c0 4.4 3.6 8 8 8h16c4.4 0 8-3.6 8-8v-56c0-26.5-21.5-48-48-48zm-32 48c-8.8 0-16 7.2-16 16s7.2 16 16 16 16-7.2 16-16-7.2-16-16-16zm-96 0c-8.8 0-16 7.2-16 16v40c0 4.4 3.6 8 8 8h16c4.4 0 8-3.6 8-8v-40c0-8.8-7.2-16-16-16zm183.2-119.7c20.3-20.1 35.9-44.8 45.7-72.3h11.1c8.8 0 16-7.2 16-16v-96c0-8.8-7.2-16-16-16h-11.2c-26.3-74.5-97.2-128-180.8-128s-154.5 53.5-180.8 128h-11.2c-8.8 0-16 7.2-16 16v96c0 8.8 7.2 16 16 16h11.2c9.7 27.5 25.4 52.2 45.7 72.3-51.8 18.7-88.9 67.9-88.9 126.1v49.6c0 4.4 3.6 8 8 8h16c4.4 0 8-3.6 8-8v-49.6c0-51.6 38.5-94 88.3-101 29.9 19.3 65.5 30.6 103.7 30.6s73.8-11.3 103.7-30.6c49.8 6.9 88.3 49.3 88.3 101v49.6c0 4.4 3.6 8 8 8h16c4.4 0 8-3.6 8-8v-49.6c0-58.2-37.1-107.4-88.8-126.1zm-135.2 23.7c-88.2 0-160-71.8-160-160s71.8-160 160-160 160 71.8 160 160-71.8 160-160 160z" fill="#83d0ff"/></svg>