<svg xmlns="http://www.w3.org/2000/svg" viewBox="0 0 245.5 300.96"><defs><style>.cls-1{font-size:60px;fill:#1ea6d5;font-family:TradeMark, TradeMark;}.cls-2{fill:#ffd580;}.cls-3{fill:#fcda9f;}.cls-4{fill:#f37260;}.cls-5{fill:#f8aba4;opacity:0.35;}.cls-6{fill:#fff;}.cls-7{fill:#ef4426;}.cls-8{fill:#f9ed32;}.cls-9{fill:#1da6d6;}.cls-10{fill:#f78e23;}.cls-11{fill:#febb1d;}.cls-12{fill:#fff200;}</style></defs><title>Asset 1</title><g id="Layer_2" data-name="Layer 2"><g id="Layer_1-2" data-name="Layer 1"><text class="cls-1" transform="translate(27.41 275.28)">Birthday</text><path class="cls-2" d="M122.85,206.77h0c-28,0-52.15-8.75-52.15-29l-5.3-44.46H180.3L175,177.73C175,198,150.81,206.77,122.85,206.77Z"/><path class="cls-3" d="M79.25,189.61l-.28,0a1.41,1.41,0,0,1-1.53-1.22l-7-55.52a1.33,1.33,0,0,1,1.19-1.51l.28,0a1.4,1.4,0,0,1,1.53,1.21l7,55.53A1.33,1.33,0,0,1,79.25,189.61Z"/><path class="cls-3" d="M87.77,193.53l-.28,0A1.4,1.4,0,0,1,86,192.27l-4.87-55.74a1.35,1.35,0,0,1,1.25-1.46l.28,0a1.41,1.41,0,0,1,1.49,1.27L89,192.06A1.35,1.35,0,0,1,87.77,193.53Z"/><path class="cls-3" d="M95.68,197.47H95.4A1.4,1.4,0,0,1,94,196.11L92.42,140.2a1.34,1.34,0,0,1,1.33-1.39H94a1.4,1.4,0,0,1,1.41,1.36L97,196.09A1.34,1.34,0,0,1,95.68,197.47Z"/><path class="cls-3" d="M104.77,199.32h-.29a1.41,1.41,0,0,1-1.38-1.38L102.58,142a1.34,1.34,0,0,1,1.36-1.36h.28a1.4,1.4,0,0,1,1.38,1.39l.52,55.91A1.33,1.33,0,0,1,104.77,199.32Z"/><path class="cls-3" d="M114.32,201.63H114a1.39,1.39,0,0,1-1.38-1.38l-.36-55.92a1.34,1.34,0,0,1,1.36-1.36h.28a1.4,1.4,0,0,1,1.38,1.39l.36,55.91A1.34,1.34,0,0,1,114.32,201.63Z"/><path class="cls-3" d="M123.64,202.34h-.28a1.41,1.41,0,0,1-1.37-1.41l.25-55.9a1.33,1.33,0,0,1,1.37-1.34h.28a1.41,1.41,0,0,1,1.37,1.41L125,201A1.33,1.33,0,0,1,123.64,202.34Z"/><path class="cls-3" d="M169.09,189.73l.28,0a1.41,1.41,0,0,0,1.49-1.27l4.9-55.75a1.35,1.35,0,0,0-1.24-1.47l-.28,0a1.41,1.41,0,0,0-1.49,1.28l-4.9,55.75A1.34,1.34,0,0,0,169.09,189.73Z"/><path class="cls-3" d="M160.79,193.62h.28a1.39,1.39,0,0,0,1.42-1.33l2.37-55.91a1.32,1.32,0,0,0-1.31-1.4h-.28a1.4,1.4,0,0,0-1.42,1.34l-2.37,55.9A1.34,1.34,0,0,0,160.79,193.62Z"/><path class="cls-3" d="M151.57,197.47h.28a1.4,1.4,0,0,0,1.41-1.36l1.57-55.91a1.34,1.34,0,0,0-1.33-1.39h-.28a1.4,1.4,0,0,0-1.41,1.36l-1.57,55.92A1.34,1.34,0,0,0,151.57,197.47Z"/><path class="cls-3" d="M142.57,201.63h.28a1.4,1.4,0,0,0,1.38-1.38l.36-55.92a1.36,1.36,0,0,0-1.36-1.36h-.29a1.4,1.4,0,0,0-1.37,1.39l-.36,55.91A1.34,1.34,0,0,0,142.57,201.63Z"/><path class="cls-3" d="M133.25,202.34h.28a1.4,1.4,0,0,0,1.36-1.41l-.24-55.9a1.34,1.34,0,0,0-1.38-1.34H133a1.41,1.41,0,0,0-1.36,1.41l.24,55.9A1.34,1.34,0,0,0,133.25,202.34Z"/><path class="cls-4" d="M184.12,126.37c0,20.77-27.42,17.6-61.25,17.6s-61.25,3.17-61.25-17.6S89,88.76,122.87,88.76,184.12,105.6,184.12,126.37Z"/><ellipse class="cls-4" cx="122.63" cy="128.47" rx="61.25" ry="25.76"/><path class="cls-4" d="M176.69,104.88c0,15-24.21,12.69-54.06,12.69s-54.07,2.28-54.07-12.69,24.21-27.11,54.07-27.11S176.69,89.91,176.69,104.88Z"/><path class="cls-4" d="M153.67,98.32c0,8.65-14.63,7.34-32.68,7.34S88.32,107,88.32,98.32,103,82.66,121,82.66,153.67,89.67,153.67,98.32Z"/><path class="cls-4" d="M153.67,96.63C153.67,88.81,139,90,121,90s-32.67-1.19-32.67,6.63S103,110.78,121,110.78,153.67,104.44,153.67,96.63Z"/><path class="cls-5" d="M122.63,126.71c27.79,0,50.67-8,53.7-18.38a6.66,6.66,0,0,1,.36,2.19c0,11.44-24.21,20.72-54.06,20.72S68.56,122,68.56,110.52a6.66,6.66,0,0,1,.36-2.19C72,118.67,94.84,126.71,122.63,126.71Z"/><path class="cls-5" d="M121,112.93c17.19,0,31.33-6.25,33.21-14.28a6.48,6.48,0,0,1,.22,1.7c0,8.89-15,16.1-33.43,16.1s-33.42-7.21-33.42-16.1a6.94,6.94,0,0,1,.21-1.7C89.66,106.68,103.81,112.93,121,112.93Z"/><path class="cls-5" d="M121,81.36c17.18,0,31.33,5.94,33.2,13.58a5.93,5.93,0,0,0,.22-1.62c0-8.45-15-15.31-33.42-15.31S87.55,84.87,87.55,93.32a5.93,5.93,0,0,0,.22,1.62C89.65,87.3,103.79,81.36,121,81.36Z"/><rect class="cls-6" x="118.16" y="107.25" width="2.37" height="12.57" rx="1.19" ry="1.19" transform="translate(110.55 278.01) rotate(-130.51)"/><rect class="cls-7" x="98.65" y="111.74" width="2.37" height="12.57" rx="1.19" ry="1.19" transform="translate(146.09 -29.48) rotate(57.64)"/><rect class="cls-8" x="130.92" y="92.08" width="2.37" height="12.57" rx="1.19" ry="1.19" transform="translate(-31.63 116.2) rotate(-42.89)"/><rect class="cls-9" x="135.7" y="106.99" width="2.37" height="12.57" rx="1.19" ry="1.19" transform="matrix(0.54, 0.84, -0.84, 0.54, 159.3, -62.98)"/><rect class="cls-6" x="106.88" y="129.19" width="2.37" height="12.57" rx="1.19" ry="1.19" transform="translate(278.88 164.75) rotate(138.3)"/><rect class="cls-7" x="124.6" y="130.63" width="2.37" height="12.57" rx="1.19" ry="1.19" transform="translate(-12.18 12.28) rotate(-5.33)"/><rect class="cls-8" x="109.93" y="116.81" width="2.37" height="12.57" rx="1.19" ry="1.19" transform="translate(257.17 44.58) rotate(103.81)"/><rect class="cls-9" x="109.11" y="97.94" width="2.37" height="12.57" rx="1.19" ry="1.19" transform="translate(-16.83 21.36) rotate(-10.28)"/><rect class="cls-6" x="97.23" y="76.37" width="2.37" height="12.57" rx="1.19" ry="1.19" transform="translate(-21.17 35.57) rotate(-18.53)"/><rect class="cls-7" x="129.44" y="80.19" width="2.37" height="12.57" rx="1.19" ry="1.19" transform="translate(19 196.38) rotate(-78.06)"/><rect class="cls-8" x="106.9" y="84.09" width="2.37" height="12.57" rx="1.19" ry="1.19" transform="translate(-24.95 44) rotate(-20.68)"/><rect class="cls-9" x="114.28" y="78.13" width="2.37" height="12.57" rx="1.19" ry="1.19"/><rect class="cls-6" x="79.81" y="107.91" width="2.37" height="12.57" rx="1.19" ry="1.19" transform="translate(46.8 249.96) rotate(-130.51)"/><rect class="cls-7" x="91.75" y="110.94" width="2.37" height="12.57" rx="1.19" ry="1.19" transform="translate(181.51 -3.34) rotate(74.71)"/><rect class="cls-8" x="92.57" y="92.74" width="2.37" height="12.57" rx="1.19" ry="1.19" transform="translate(-42.33 90.28) rotate(-42.89)"/><rect class="cls-9" x="73.51" y="92.45" width="2.37" height="12.57" rx="1.19" ry="1.19" transform="translate(118.11 -17.21) rotate(57.64)"/><rect class="cls-6" x="68.54" y="129.86" width="2.37" height="12.57" rx="1.19" ry="1.19" transform="translate(218.58 100.93) rotate(103.81)"/><rect class="cls-7" x="86.26" y="131.3" width="2.37" height="12.57" rx="1.19" ry="1.19" transform="translate(-12.41 8.72) rotate(-5.33)"/><rect class="cls-8" x="67.38" y="115.05" width="2.37" height="12.57" rx="1.19" ry="1.19" transform="translate(202.76 83.72) rotate(103.81)"/><rect class="cls-9" x="78.95" y="125.07" width="2.37" height="12.57" rx="1.19" ry="1.19" transform="translate(-22.16 16.41) rotate(-10.28)"/><rect class="cls-6" x="81.82" y="86.46" width="2.37" height="12.57" rx="1.19" ry="1.19" transform="translate(-25.17 31.2) rotate(-18.53)"/><rect class="cls-7" x="91.75" y="81.57" width="2.37" height="12.57" rx="1.19" ry="1.19" transform="translate(-12.24 160.6) rotate(-78.06)"/><rect class="cls-8" x="77.72" y="97.66" width="2.37" height="12.57" rx="1.19" ry="1.19" transform="translate(-31.63 34.57) rotate(-20.68)"/><rect class="cls-9" x="97.23" y="127.79" width="2.37" height="12.57" rx="1.19" ry="1.19" transform="translate(-67.9 132.59) rotate(-53.21)"/><rect class="cls-6" x="135.89" y="114.42" width="2.37" height="12.57" rx="1.19" ry="1.19" transform="translate(46.62 -37.97) rotate(18.95)"/><rect class="cls-7" x="144.3" y="105.21" width="2.37" height="12.57" rx="1.19" ry="1.19" transform="translate(224.21 277.03) rotate(-152.9)"/><rect class="cls-8" x="132.61" y="133.97" width="2.37" height="12.57" rx="1.19" ry="1.19" transform="translate(306.39 52.02) rotate(106.57)"/><rect class="cls-9" x="120.91" y="123.55" width="2.37" height="12.57" rx="1.19" ry="1.19" transform="matrix(-1, -0.04, 0.04, -1, 239.09, 264.3)"/><rect class="cls-6" x="134.45" y="89.79" width="2.37" height="12.57" rx="1.19" ry="1.19" transform="translate(82.67 253.63) rotate(-106.73)"/><rect class="cls-7" x="114.51" y="97.56" width="2.37" height="12.57" rx="1.19" ry="1.19" transform="translate(270.3 120.18) rotate(144.13)"/><rect class="cls-8" x="138.12" y="102" width="2.37" height="12.57" rx="1.19" ry="1.19" transform="translate(75.7 272.87) rotate(-106.73)"/><rect class="cls-9" x="156.48" y="115.05" width="2.37" height="12.57" rx="1.19" ry="1.19" transform="translate(356.29 110.09) rotate(139.18)"/><rect class="cls-6" x="145.06" y="133.92" width="2.37" height="12.57" rx="1.19" ry="1.19" transform="translate(347.99 121.55) rotate(130.92)"/><rect class="cls-7" x="139" y="143.18" width="2.37" height="12.57" rx="1.19" ry="1.19" transform="translate(237.13 -31.07) rotate(71.4)"/><rect class="cls-8" x="157.36" y="128.65" width="2.37" height="12.57" rx="1.19" ry="1.19" transform="translate(363.03 95.84) rotate(128.78)"/><rect class="cls-9" x="148.65" y="126.1" width="2.37" height="12.57" rx="1.19" ry="1.19" transform="matrix(-0.86, 0.51, -0.51, -0.86, 346.16, 170.25)"/><rect class="cls-6" x="168.58" y="94.37" width="2.37" height="12.57" rx="1.19" ry="1.19" transform="matrix(0.95, 0.32, -0.32, 0.95, 41.88, -49.67)"/><rect class="cls-7" x="163.37" y="92.22" width="2.37" height="12.57" rx="1.19" ry="1.19" transform="translate(266.18 261.15) rotate(-152.9)"/><rect class="cls-8" x="165.3" y="113.92" width="2.37" height="12.57" rx="1.19" ry="1.19" transform="translate(329.17 -5.08) rotate(106.57)"/><rect class="cls-9" x="111.77" y="138.13" width="2.37" height="12.57" rx="1.19" ry="1.19" transform="translate(147.73 324.43) rotate(-152.9)"/><rect class="cls-7" x="151.14" y="77.5" width="2.37" height="12.57" rx="1.19" ry="1.19" transform="translate(324.85 62.41) rotate(144.13)"/><rect class="cls-8" x="136.27" y="72.39" width="2.37" height="12.57" rx="1.19" ry="1.19" transform="translate(101.68 232.96) rotate(-106.73)"/><rect class="cls-9" x="156.48" y="99.35" width="2.37" height="12.57" rx="1.19" ry="1.19" transform="translate(346.03 82.5) rotate(139.18)"/><rect class="cls-6" x="177.75" y="113.87" width="2.37" height="12.57" rx="1.19" ry="1.19" transform="translate(386.93 63.66) rotate(130.92)"/><rect class="cls-7" x="171.68" y="123.13" width="2.37" height="12.57" rx="1.19" ry="1.19" transform="translate(240.38 -75.7) rotate(71.4)"/><rect class="cls-8" x="175.59" y="102.13" width="2.37" height="12.57" rx="1.19" ry="1.19" transform="translate(372.01 38.5) rotate(128.78)"/><rect class="cls-9" x="143.48" y="86.09" width="2.37" height="12.57" rx="1.19" ry="1.19" transform="translate(316.2 98.43) rotate(149.46)"/><rect class="cls-6" x="115.7" y="47.41" width="10.55" height="50.21" rx="4.22" ry="4.22"/><path class="cls-10" d="M121,52.43h0c-5.91,0-10.7-7.19-10.7-16.06h0c0-6.66,2.7-12.37,6.54-14.81,3-1.89,5.25-5.66,6.37-10.21l2.41-9.79c.41-1.63,1.81-2.1,2.61-.85,3.76,5.81,3.47,28,3.47,35.66h0C131.69,45.24,126.9,52.43,121,52.43Z"/><path class="cls-11" d="M121.07,52.42h0c-3.72-.14-6.57-4.8-6.35-10.4h0c.16-4.2,2-7.74,4.48-9.18,1.93-1.12,3.45-3.45,4.27-6.29l1.77-6.12c.29-1,1.19-1.28,1.67-.47,2.22,3.76,1.5,17.74,1.31,22.58h0C128,48.14,124.8,52.57,121.07,52.42Z"/><path class="cls-12" d="M119.59,52.23h0c-2.31-.33-3.79-3.42-3.29-6.9h0c.38-2.61,1.75-4.7,3.39-5.44a6.53,6.53,0,0,0,3.07-3.64l1.5-3.7c.25-.62.83-.72,1.07-.19,1.15,2.49-.21,11.16-.64,14.17h0C124.19,50,121.91,52.56,119.59,52.23Z"/></g></g></svg>