<svg xmlns="http://www.w3.org/2000/svg" viewBox="0 0 437.55 65.67"><defs><style>.cls-1{fill:#fff;}</style></defs><title>Asset 1</title><g id="Layer_2" data-name="Layer 2"><g id="Layer_1-2" data-name="Layer 1"><path class="cls-1" d="M135.58,49.4v-.29a6.87,6.87,0,0,1-3.31-6c0-2.59,1.73-5.11,4-6.7v-.28a11.44,11.44,0,0,1-4.82-9.29c0-8.57,7.05-12.89,14.76-12.89a16.69,16.69,0,0,1,5.54.86h13v7.71h-5.69a9.49,9.49,0,0,1,1.15,4.68c0,8.21-6.19,12-14,12a14,14,0,0,1-4.32-.72,3,3,0,0,0-1.3,2.67c0,1.8,1.44,2.66,5.4,2.66h5.76c8.79,0,13.61,2.66,13.61,9.07,0,7.42-7.7,12.82-19.94,12.82-8.36,0-15-2.74-15-9.07C130.47,53.65,132.27,51.27,135.58,49.4Zm11.52,9.65c4.76,0,8.21-1.95,8.21-4.4,0-2.23-1.94-2.81-5.47-2.81h-3.67a20.67,20.67,0,0,1-5-.43,4.69,4.69,0,0,0-1.95,3.53C139.18,57.6,142.35,59.05,147.1,59.05Zm4-32.26c0-3.75-2.09-5.76-4.9-5.76s-4.9,1.94-4.9,5.76,2.09,6,4.9,6S151.14,30.75,151.14,26.79Z"/><path class="cls-1" d="M188.58,27.51c-.22-3.17-1.8-5.19-5.62-5.19-3,0-6.05,1.23-9.51,3.24l-3.74-7A29.5,29.5,0,0,1,185,13.9c9.14,0,14.18,5.18,14.18,16.13V50.48h-8.64l-.79-3.68h-.22c-3,2.67-6.41,4.54-10.44,4.54-6.48,0-10.58-4.75-10.58-10.8C168.49,33.05,174.46,29,188.58,27.51Zm-5.91,15.62c2.45,0,4-1.15,5.91-3V33.84c-7.56,1-10,3.17-10,5.91C178.57,42.05,180.15,43.13,182.67,43.13Z"/><path class="cls-1" d="M208.23,14.76h8.64l.72,4.54h.29c3-2.88,6.62-5.4,11.45-5.4,7.77,0,11.09,5.47,11.09,14.4V50.48H229.83V29.67c0-5.19-1.37-6.77-4.39-6.77-2.66,0-4.32,1.22-6.62,3.45V50.48H208.23Z"/><path class="cls-1" d="M250.85,23H246V15.19l5.47-.43,1.22-9.5h8.79v9.5H270V23h-8.57V37.37c0,4,1.8,5.69,4.61,5.69a10.07,10.07,0,0,0,3.38-.72l1.66,7.7a25.6,25.6,0,0,1-7.92,1.3c-8.86,0-12.32-5.54-12.32-13.82Z"/><path class="cls-1" d="M278.43,23h-4.9V15.19l5.47-.43,1.23-9.5H289v9.5h8.57V23H289V37.37c0,4,1.8,5.69,4.61,5.69a10.18,10.18,0,0,0,3.39-.72l1.65,7.7a25.54,25.54,0,0,1-7.92,1.3c-8.85,0-12.31-5.54-12.31-13.82Z"/><path class="cls-1" d="M304.57,14.76h8.64l.71,6.27h.29c2.6-4.83,6.48-7.13,10.16-7.13a10.24,10.24,0,0,1,4.24.72l-1.72,9.14a13.39,13.39,0,0,0-3.89-.57c-2.67,0-6,1.72-7.85,6.55V50.48H304.57Z"/><path class="cls-1" d="M349.93,27.51c-.22-3.17-1.8-5.19-5.62-5.19-3,0-6.05,1.23-9.5,3.24l-3.75-7a29.5,29.5,0,0,1,15.27-4.68c9.14,0,14.18,5.18,14.18,16.13V50.48h-8.64l-.79-3.68h-.22c-3,2.67-6.41,4.54-10.44,4.54-6.48,0-10.58-4.75-10.58-10.8C329.84,33.05,335.81,29,349.93,27.51ZM344,43.13c2.45,0,4-1.15,5.91-3V33.84c-7.56,1-10,3.17-10,5.91C339.92,42.05,341.5,43.13,344,43.13Z"/><path class="cls-1" d="M386.07,13.9A14.4,14.4,0,0,1,396.51,18l-4.82,6.55a7.65,7.65,0,0,0-5-2.08c-5.11,0-8.35,4-8.35,10.15s3.38,10.15,8,10.15a10.29,10.29,0,0,0,6.41-2.59l4.25,6.7a18.58,18.58,0,0,1-11.89,4.46c-9.93,0-17.64-6.84-17.64-18.72S376.21,13.9,386.07,13.9Z"/><path class="cls-1" d="M403.21,0H413.5V29h.29l11.3-14.19h11.53L424.09,29.45l13.46,21H426.1L418,36.58l-4.54,5.11v8.79H403.21Z"/><rect class="cls-1" y="4.75" width="80.54" height="28.01"/><rect class="cls-1" x="25.93" y="36.15" width="80.54" height="28.01"/></g></g></svg>