<svg xmlns="http://www.w3.org/2000/svg" viewBox="0 0 449.88 87.34"><defs><style>.cls-1{fill:#fff;}.cls-2,.cls-3,.cls-4{fill:none;stroke:#fff;stroke-miterlimit:10;}.cls-2{stroke-width:0.76px;}.cls-3{stroke-width:0.85px;}.cls-4{stroke-width:0.31px;}</style></defs><title>Asset 5</title><g id="Layer_2" data-name="Layer 2"><g id="Layer_1-2" data-name="Layer 1"><path class="cls-1" d="M435.8,23.26a.34.34,0,0,0,.22,0,8.25,8.25,0,0,1,1.76.69,4.87,4.87,0,0,0,2,.16.38.38,0,0,0,.36-.42c.34-2.71,2.21-5,2.58-7.75a9.17,9.17,0,0,0-.75-6,.36.36,0,0,0-.35-.31,12.33,12.33,0,0,0-3.53.27c-.43.1-.29.71.11.72a9.15,9.15,0,0,1,0,6.73,28.41,28.41,0,0,1-2.47,5.12A.37.37,0,0,0,435.8,23.26Zm3.48-6.44a9.21,9.21,0,0,0-.32-6.25,11.94,11.94,0,0,1,2.39-.13c1.34,2.45.89,5.84-.07,8.34-.62,1.62-1.52,2.95-1.83,4.64a4.1,4.1,0,0,1-2-.42,7.25,7.25,0,0,0-.83-.34A29.19,29.19,0,0,0,439.28,16.82Z"/><path class="cls-1" d="M449.24,40c-1.25-1-2.42-.8-3.88-1.3l-.21-.07c.65-1.76.66-3.75-1-4.9A25.84,25.84,0,0,0,439,31.11c.27-1.09.64-2.34,1.11-3.78a.37.37,0,0,0,0-.18,13.35,13.35,0,0,0,5-8.53c1.53-8.73-4.36-16.81-13.42-18.4-3.65-.64-6,.1-7.52,2.33A9.64,9.64,0,0,0,418.91,6a17.81,17.81,0,0,0-4.12,10.13c-.28,3.7.67,6.94,2.54,8.67a11,11,0,0,0,3.28,2.14,5,5,0,0,0,1.48,1.46c-.58,1.12-2.25,1.37-3.37,1.61a31.06,31.06,0,0,0-3.7.87,14.14,14.14,0,0,0-4.86,3.39c-.84-.4-1.76-.52-2.61-.88a4.48,4.48,0,0,0-2.26-.61l-.39.06a6.91,6.91,0,0,1-1.29-2.2c-.09-.22-.16-.44-.24-.66a9.5,9.5,0,0,0-.64-1.58A5.18,5.18,0,0,0,401,26.76a9.51,9.51,0,0,0-2.35-1.16h0a3.62,3.62,0,0,0-1.37-.23,1.25,1.25,0,0,0-.45.13c-.25.12-.6.45-.34,1.24A13.12,13.12,0,0,0,395,26.3l-.77-.2-.34-.11a3.45,3.45,0,0,0-1.05-.22h-.16a1.38,1.38,0,0,0-1.08.57,1,1,0,0,0,0,.77h0a1.13,1.13,0,0,0-.26,0,1.72,1.72,0,0,0-.91.38.75.75,0,0,0-.18.83.88.88,0,0,0,.2.41,1.09,1.09,0,0,0-.66.48,1.14,1.14,0,0,0,.13,1,.8.8,0,0,0,.47.3,1.25,1.25,0,0,0-.27.68,1.47,1.47,0,0,0,0,.47,7.83,7.83,0,0,0-1.1-.59l0,0a3.61,3.61,0,0,0-1.42-.41,1.53,1.53,0,0,0-.49.08c-.29.11-.7.41-.51,1.28a14.32,14.32,0,0,0-1.52-.63c-.26-.09-.53-.19-.79-.3l-.36-.15a3.44,3.44,0,0,0-1.08-.36h-.17a1.5,1.5,0,0,0-1.21.48,1.1,1.1,0,0,0-.08.82h0a1.27,1.27,0,0,0-.28,0,1.85,1.85,0,0,0-1,.31.81.81,0,0,0-.29.86,1.1,1.1,0,0,0,.17.46,1.18,1.18,0,0,0-.76.43,1.25,1.25,0,0,0,0,1.1.89.89,0,0,0,.47.37,1.27,1.27,0,0,0-.37.69,1.48,1.48,0,0,0,.05.91,1.45,1.45,0,0,0,.58.68,10.89,10.89,0,0,1,1.78,1.61c.14.16.28.33.41.5l.36.43c.1.12.21.22.32.33s.28.29.41.45.33.45.49.67.33.47.5.69a7.44,7.44,0,0,0,1.89,1.86c.6.37,1.24.69,1.86,1l.77.4a.23.23,0,0,0,.11,0h0a2.32,2.32,0,0,0,.17.83,7.55,7.55,0,0,0,1.22,1.59c.89,1.11,1.66,2.3,2.5,3.45l.83,1.14a14.05,14.05,0,0,1-6.49-3.59,16.15,16.15,0,0,0-2.72-1.93c-1-.62-1.88-1.4-2.81-2.1a26.33,26.33,0,0,0-6.17-3.61,7.56,7.56,0,0,0-5.06-.49,7.76,7.76,0,0,0-2.12,1.41c-3.85,2.93-7.8,5.89-11,9.55-1.78,2.07-3.81,3.94-5.75,5.87-1.05,1-2.1,2.09-3.12,3.15a27.72,27.72,0,0,1-1.9,2.13,1.38,1.38,0,0,1-.23.16.36.36,0,0,0-.32.09c-.25,0-.47-.2-.81-.47a9.71,9.71,0,0,0-2.71-1.59c-1.94-.66-3.19.17-4.66,1.35a9.52,9.52,0,0,1-1.64.91c-.24.15-.4.18-.51.48-.18.49.33,1.25.55,1.66a24.33,24.33,0,0,0,4.57,5.74,15.39,15.39,0,0,1-1.6,1c-.3.17-.48.18-.59.55-.17.59.55,1.61.84,2.08a19.39,19.39,0,0,0,1.24,1.86,33.32,33.32,0,0,0,6.89,6.63,21,21,0,0,0,3.14,1.9c.43.21.88.38,1.29.62s.86.71,1.39.73c.87,0,1.48-1,2-1.51C356.51,84,357.87,83,359,81.86c1.53-1.56,2.69-3.4,4.17-5l1-1.08a.47.47,0,0,0,.44-.47q1.72-1.78,3.49-3.54c1.52-1.51,3-3,4.63-4.46.2-.17.39-.36.6-.53a.44.44,0,0,0,.11-.09,1.48,1.48,0,0,1,1.83-.24c1.56.93,2.64,3,3.78,4.42a.19.19,0,0,0,.13.07,46.26,46.26,0,0,0,6.63,5.78A30.45,30.45,0,0,1,388.7,79c.73.7,1.38,1.47,2.07,2.22a.35.35,0,0,0,.29.31c.28.3.58.59.88.87,3.5,3.17,7.95,5.16,12.72,4.36,3.17-.53,5.85-2.15,8.48-3.89.25-.16.65-.54,1-.57.59-.06,1.67.78,2.17,1.07a59.28,59.28,0,0,0,6,3.14c1.43.59,3.33,1.32,4.79.45a16.89,16.89,0,0,0,4.39-4.37c3-4.06,5-8.87,6.78-13.59,1.92-5.07,3.6-10.26,6-15.14.51-1.07,2.83-8.31,3.44-9.33s1.48-1.95,2.05-3C450.07,40.88,449.8,40.45,449.24,40ZM439,31.61s.08.11.35.16a4.42,4.42,0,0,1,1.06.49c1.36.64,3.72,1.43,4.45,2.8a4.67,4.67,0,0,1-.08,3.19.61.61,0,0,0-.09.22s-.07-.09-.3-.12a5.57,5.57,0,0,1-1.09-.42c-1.05-.41-3.65-1-4.68-2.13a2.63,2.63,0,0,1-.18-.54,3.93,3.93,0,0,1,0-1.28c0-.22.11-.44.17-.67a6.48,6.48,0,0,1,.32-1.43A.64.64,0,0,0,439,31.61Zm-18-5.14-.17-.06h0a10.38,10.38,0,0,1-3.12-2c-3.79-3.51-3-12.75,1.63-18,2.16-2.47,4.17-3.37,6-3.37a6.49,6.49,0,0,1,2.05.35l.06,0,.32.12.32.14.07,0A21.51,21.51,0,0,1,433,7a13.44,13.44,0,0,1,2.13,2.18,7.79,7.79,0,0,1,1.6,4.85,12.25,12.25,0,0,1-2.13,6.17v0l-.39.6L434,21l-.3.42-.15.2-.41.52-.2.24-.24.26-.27.3-.14.15C429,26.57,424.77,27.9,421.05,26.47Zm.61.83a8.93,8.93,0,0,0,2.47.34,10.63,10.63,0,0,0,1.25-.08,12.42,12.42,0,0,0,6.72-3.39l.17-.17.28-.27c.14-.14.28-.28.41-.43l.19-.21.31-.35a1.63,1.63,0,0,1,.17-.2c.15-.18.29-.37.43-.55l.09-.12c.12-.16.25-.33.37-.51l.12-.18c.14-.2.28-.41.41-.62v0a12.92,12.92,0,0,0,2.23-6.4,8.36,8.36,0,0,0-.35-2.61,10.89,10.89,0,0,0-3.59-4.94c-1.76-1.51-3.84-3.27-6.18-3.92h-.06a2.34,2.34,0,0,0-.38-.09l-.19,0-.15,0a5.92,5.92,0,0,0-1.46-.07C426.29.75,428.37.25,431.54.8c8.73,1.53,14.41,9.31,12.94,17.71a12.66,12.66,0,0,1-6.28,9.18,17.7,17.7,0,0,1-11.66,1.63A9.08,9.08,0,0,1,421.66,27.3Zm-10,6.28A12.78,12.78,0,0,1,416.07,31c1.45-.37,3-.54,4.39-1a4.38,4.38,0,0,0,1.41-.68c.43-.34.33-.49.79-.4.73.13,1.51.65,2.24.84a19.73,19.73,0,0,0,2.86.53,17.39,17.39,0,0,0,11.53-2.41,42.77,42.77,0,0,0-1,4.34,11.75,11.75,0,0,0-.54,2.85.24.24,0,0,0-.13.13c-1.18,3.47-1.26,7.3-1.65,10.9a32.85,32.85,0,0,1-.87,5.31A28.2,28.2,0,0,1,432.51,57a65.24,65.24,0,0,1-3.59,5.72c-1.34,2-2.46,4.15-3.91,6.07-.82,1.08-1.72,2.12-2.63,3.14-.78-.25-1-1.71-1.43-2.27a3,3,0,0,0-1.09-.75c-1.88-.83-3.75-.7-4.58-3a.41.41,0,0,0,0-.09,25.28,25.28,0,0,0,3.07-2.6,42,42,0,0,0,4.79-5.36c1.55-2,3-4.14,4.5-6.2,1.36-1.85,3.19-3.57,4.26-5.6a13.21,13.21,0,0,0,1.59-4.89c.12-1.73-1-3.44-2.08-4.67-2.88-3.19-8.9-3.26-11.79,0A32.7,32.7,0,0,0,417,40.06c-.6-1.78-3-3.27-4.72-2.33-3.85,2.13-5.34,5.74-7.71,9.2a.31.31,0,0,0-.05.22A12.51,12.51,0,0,1,403,45.81l-.88-1c1.75-2.48,3.6-4.93,5.41-7.05.8-.83,1.6-1.67,2.34-2.56C410.52,34.62,411.12,34.06,411.7,33.58Zm4.86,7.1a15.33,15.33,0,0,1-1.23,1.56c-1.93,2.1-3.88,4.18-5.81,6.28-1.41.69-3.15,0-4.58-1a.4.4,0,0,0,.26-.17c1.52-2.22,2.5-4.8,4.48-6.7a15.28,15.28,0,0,1,2.47-1.82,2.73,2.73,0,0,1,4.17,1.65A.32.32,0,0,0,416.56,40.68ZM400,40.18c.31.56,1.11,1,1.56,1.4s.81.82,1.22,1.22c-.37.51-.74,1-1.09,1.52a22.78,22.78,0,0,0-3.6-3.2,6.94,6.94,0,0,0-3.21-1.51l0,0A7.7,7.7,0,0,1,393.68,37c-.06-.24-.11-.49-.17-.73a10.33,10.33,0,0,0-.5-1.75,3.8,3.8,0,0,0-.35-.63l0,0c.15.13.29.28.44.42l.37.37.33.27c.15.13.29.24.43.38s.35.38.52.57l.54.59a7.33,7.33,0,0,0,1.94,1.54c.6.28,1.23.51,1.84.74l.69.26A1.75,1.75,0,0,0,400,40.18Zm8.59-6c.42.08.93.2,1,.34a.44.44,0,0,1,0,.36l-1.19,1.21A64.57,64.57,0,0,0,403,42.44l-.49-.49a0,0,0,0,0,0,0,21.49,21.49,0,0,1,6-7.7A.2.2,0,0,0,408.56,34.14ZM408,34h0a21.7,21.7,0,0,0-5.85,7.58l-.34-.34c-.52-.51-1.52-1-1.58-1.77a6.35,6.35,0,0,1,1.3-3.28,6.84,6.84,0,0,1,3.21-2.9C406,33,406.91,33.67,408,34Zm-17.63-4a.54.54,0,0,1-.15-.4c0-.24.41-.36.53-.39l.14,0a1.51,1.51,0,0,1,.54,0l.22.06.35.11.3.11.11,0h0l.64.18.42.11a7.39,7.39,0,0,1,1.62.56,5.26,5.26,0,0,1,1.82,1.73.22.22,0,0,0,.2.09.27.27,0,0,0,.2-.16.25.25,0,0,0,0-.25,5.6,5.6,0,0,0-2.23-2,10.54,10.54,0,0,0-1.88-.6c-.26-.06-.52-.12-.77-.2l-.35-.1a4.41,4.41,0,0,0-.66-.19l-.21-.07h0a.74.74,0,0,1-.42-.27,1,1,0,0,1-.06-.23.21.21,0,0,1,.1-.26.87.87,0,0,1,.51-.22,2.42,2.42,0,0,1,.83.12l.11,0,.09,0A6.08,6.08,0,0,0,393,28l.17,0h.14l.35.1a7.3,7.3,0,0,1,2,.75,7.66,7.66,0,0,1,2.21,2.16.21.21,0,0,0,.19.09.24.24,0,0,0,.2-.16.23.23,0,0,0,0-.25,8.22,8.22,0,0,0-2-2.08,6.85,6.85,0,0,0-2.31-1l-1.11-.31-.28-.09h0a.72.72,0,0,1-.37-.33.37.37,0,0,1,0-.49,1,1,0,0,1,.57-.22h0a2.14,2.14,0,0,1,.85.16l.27.08,1.09.31.36.09a6.93,6.93,0,0,1,1.69.6,5.48,5.48,0,0,1,1.74,1.68.21.21,0,0,0,.2.1.28.28,0,0,0,.18-.42,6,6,0,0,0-2-1.86h0c-.09-.16-.37-.67-.27-.94a.32.32,0,0,1,.2-.17l.24-.05a3.11,3.11,0,0,1,1.35.28l.07,0a9.3,9.3,0,0,1,2.1,1.08,4.46,4.46,0,0,1,1.48,1.45,8.46,8.46,0,0,1,.61,1.52c.1.29.2.59.32.87A7.33,7.33,0,0,0,404.38,33,7.79,7.79,0,0,0,401,36.31a9.4,9.4,0,0,0-1.06,2.29l-.67-.25a7.93,7.93,0,0,1-3-1.55c-.3-.29-.59-.61-.87-.92a13.51,13.51,0,0,0-1.25-1.26l-.78-.68A12.06,12.06,0,0,0,391,32.13a.77.77,0,0,1-.4-.61,1.12,1.12,0,0,1,.09-.56.34.34,0,0,1,.29-.19.79.79,0,0,1,.29,0,7.72,7.72,0,0,1,1.38.58,11.84,11.84,0,0,1,3,2,.17.17,0,0,0,.16.06.27.27,0,0,0,.14-.45,12,12,0,0,0-3.1-2.1l-.16-.08a5.09,5.09,0,0,0-1.22-.49h0a1.36,1.36,0,0,0-.57-.18A1.18,1.18,0,0,1,390.37,30ZM388.92,45.1l-.78-.39a8.57,8.57,0,0,1-3-2c-.29-.34-.55-.71-.81-1.07a13.17,13.17,0,0,0-1.19-1.49c-.25-.27-.5-.54-.74-.82a13.92,13.92,0,0,0-2.33-2.2.84.84,0,0,1-.35-.69,1.1,1.1,0,0,1,.17-.58.36.36,0,0,1,.32-.17.8.8,0,0,1,.31.07,7.76,7.76,0,0,1,1.39.77,12.29,12.29,0,0,1,2.9,2.47.22.22,0,0,0,.17.09.28.28,0,0,0,.24-.17.32.32,0,0,0,0-.3A13.18,13.18,0,0,0,382.17,36l-.15-.1a5.34,5.34,0,0,0-1.24-.67h0a1.47,1.47,0,0,0-.57-.26,1.1,1.1,0,0,1-.49-.22.57.57,0,0,1-.11-.43c0-.25.47-.33.61-.35h.15a1.46,1.46,0,0,1,.57.12l.23.09.35.15.31.15a.17.17,0,0,0,.11,0h0l.65.27L383,35a7.77,7.77,0,0,1,1.67.79,5.8,5.8,0,0,1,1.73,2,.22.22,0,0,0,.19.12.29.29,0,0,0,.23-.14.26.26,0,0,0,0-.28,5.87,5.87,0,0,0-2.14-2.37,10.59,10.59,0,0,0-1.92-.85L382,34c-.12,0-.23-.1-.35-.15a5,5,0,0,0-.69-.28l-.2-.09,0,0c-.18-.09-.36-.18-.42-.34a1.87,1.87,0,0,1,0-.25c0-.15,0-.18.14-.26a.93.93,0,0,1,.56-.17,2.48,2.48,0,0,1,.87.22l.12.05.09,0a4.71,4.71,0,0,0,.65.3l.18.08.09,0h0l.37.15a7.47,7.47,0,0,1,2,1,8.11,8.11,0,0,1,2.09,2.55.25.25,0,0,0,.2.12.27.27,0,0,0,.23-.14.28.28,0,0,0,0-.28A8.8,8.8,0,0,0,386,34.09a7.38,7.38,0,0,0-2.34-1.3l-1.14-.46-.28-.12h0a.84.84,0,0,1-.35-.39.4.4,0,0,1,.09-.52,1.29,1.29,0,0,1,.64-.17h0a2.49,2.49,0,0,1,.89.28l.27.12L385,32l.37.14a7.6,7.6,0,0,1,1.72.83,5.83,5.83,0,0,1,1.65,2,.24.24,0,0,0,.2.12.29.29,0,0,0,.23-.14.28.28,0,0,0,0-.28,6.18,6.18,0,0,0-1.88-2.2h0c-.08-.19-.31-.75-.17-1a.28.28,0,0,1,.22-.15,1.18,1.18,0,0,1,.27,0,3.44,3.44,0,0,1,1.4.45l.06,0a9.32,9.32,0,0,1,2.11,1.4,4.64,4.64,0,0,1,1.4,1.71,10.17,10.17,0,0,1,.48,1.68c.07.32.14.65.23,1a7.84,7.84,0,0,0,1,2.16l-.26.05a7.54,7.54,0,0,0-3.94,3A6,6,0,0,0,388.92,45.1ZM391,48.23a13.69,13.69,0,0,1-1.44-1.8,3.44,3.44,0,0,1,.43-2.88c1-1.95,3.74-4.31,6-3.18a12.27,12.27,0,0,1,1.56.92,20.84,20.84,0,0,0-6.5,6.84c-.14.24.24.47.38.22a20.26,20.26,0,0,1,6.39-6.7.2.2,0,0,0,.08-.12,26.59,26.59,0,0,1,3,2.66c1.5,1.52,2.76,3.24,4.72,4.21,1.23.62,2.78,1.12,4.06.52l.05,0h0l0,0h0l0,0c2.59-2.81,5.57-5.51,7.69-8.71,1.08-1.63,2.09-3.57,3.83-4.6a9.24,9.24,0,0,1,7.22-.41,7.42,7.42,0,0,1,4.28,4.84c.46,1.77-.48,4-1.24,5.58s-2.29,3.09-3.42,4.59c-1.32,1.75-2.58,3.55-3.86,5.32A40.69,40.69,0,0,1,415,65.3a4,4,0,0,1-3.86.77,27.08,27.08,0,0,1-3.47-1.35,27.81,27.81,0,0,1-4.83-2.89,43.45,43.45,0,0,1-8.4-8.78C393.27,51.47,392.17,49.81,391,48.23Zm-50.89,13.3a4.68,4.68,0,0,1,3.83.95c.56.36,1.18,1.18,1.81,1.33l.19,0a5.84,5.84,0,0,0,1.26,2.81c.31.37.84-.16.53-.53a4.91,4.91,0,0,1-1.09-2.56,7.68,7.68,0,0,0,.59-.69,54.7,54.7,0,0,1,4-4.21.42.42,0,0,0,.07.27,23.1,23.1,0,0,0,4.39,4.87.51.51,0,0,0,.16.09c-.15.17-.29.35-.44.53-.8,1-1.59,2-2.38,3-.12.13-.23.27-.34.41-.72.9-1.44,1.8-2.15,2.71-.24.3-.49.78-.78,1.16a3,3,0,0,1-.32.3.75.75,0,0,1-1.07,0c-.16-.12-.31-.26-.46-.38l-.05,0-.14-.1a6.46,6.46,0,0,0-3.86-1.55,3.15,3.15,0,0,0-1,.19c-2.05-1.78-4.58-4.09-5.05-6.82l0-.06A8.25,8.25,0,0,1,340.08,61.53Zm-3.33,4.25a1.68,1.68,0,0,1-.1-2,3,3,0,0,1,.74-.41c.51,2.72,3,5,5,6.81a6.69,6.69,0,0,0-1,.69l-.27.21A25.26,25.26,0,0,1,336.75,65.78Zm15.57,19.83c-.37-.14-.79-.35-1.15-.51a19.26,19.26,0,0,1-3.11-1.81,32.72,32.72,0,0,1-6.15-5.6,20.4,20.4,0,0,1-2.22-3.08c-.37-.65-.82-1.21-.06-2a1.55,1.55,0,0,1,.24-.19h0c2.14,2.59,4.16,5.65,6.86,7.7,2.51,1.9,5.52,3,8,5l.05,0A1.85,1.85,0,0,1,352.32,85.61Zm11.33-9.87a32.55,32.55,0,0,0-2.59,2.92,25.49,25.49,0,0,1-2.7,3.24c-1.06,1-2.27,1.92-3.32,3,0,0,0,0,0,0-2.35-1.9-5.19-3-7.65-4.73-2.84-2-4.93-5.2-7.13-7.87a5.33,5.33,0,0,0,.79-.48,6.38,6.38,0,0,1,2.17-1.26h0l.19,0a4.3,4.3,0,0,1,3.05.66,16,16,0,0,0,1.87,1.4,1.16,1.16,0,0,0,.53.16,5.8,5.8,0,0,0,1.29,3c.31.37.84-.16.53-.53a5,5,0,0,1-1.09-2.57.56.56,0,0,0,0-.12A8.8,8.8,0,0,0,351,70.5l.6-.76c.28-.35.55-.7.83-1q.61-.78,1.23-1.53l.19-.23c.66,2,2.28,3.32,3.91,4.59a59.55,59.55,0,0,0,6,4.06ZM413.44,82a.17.17,0,0,0-.05.15c-.37.23-.73.53-1,.71A27,27,0,0,1,408.64,85a14,14,0,0,1-14.78-1.62,20.57,20.57,0,0,1-2.37-2.1l0,0A7.56,7.56,0,0,1,395,77.15a3,3,0,0,0,1.76-2.42.38.38,0,0,0-.75,0c0,1.49-2.29,2.2-3.24,3.12a7.61,7.61,0,0,0-1.84,2.86,32.62,32.62,0,0,0-3.61-3.44,55.21,55.21,0,0,1-7.91-6.8.15.15,0,0,0-.1-.06c-.9-1.1-1.71-2.28-2.66-3.34A5.09,5.09,0,0,0,375.37,66s0,0,0,0a15.6,15.6,0,0,1,2.66-5.21c.29-.38-.25-.89-.55-.51a16.75,16.75,0,0,0-2.84,5.54,1.91,1.91,0,0,0-1.17.37,5,5,0,0,1-.7-2.58c0-.47-.73-.57-.74-.09a5.8,5.8,0,0,0,.85,3.14l0,0a7.75,7.75,0,0,1-2.76-4.5c-.1-.47-.82-.27-.72.2a8.38,8.38,0,0,0,2.94,4.83l-.31.3c-2.6,2.41-5.12,4.93-7.57,7.49a57.29,57.29,0,0,1-5.25-3.46c-1.74-1.29-3.8-2.7-4.47-4.87a.43.43,0,0,0-.3-.3l3.85-4.74.51-.61c1.81-2.23,3.66-4.44,5.36-6.76a40.78,40.78,0,0,1,3.24-3.71l.28-.26a26.53,26.53,0,0,1,2.16-1.81,4.92,4.92,0,0,1,.81-.5,6.48,6.48,0,0,1,2.59-.57,11.87,11.87,0,0,1,4.48,1A25.84,25.84,0,0,1,384.47,53c2.24,1.92,7.41,4.11,8.41,4.11a3.1,3.1,0,0,0,2-1c.7-.7,1-2,0-2s0,3-3,2c-.43-.14-5.56-2.1-5.85-2.35-2.93-2.64-6.42-5.76-10.32-6.64a7.45,7.45,0,0,0-5.59.49,19.52,19.52,0,0,0-5.47,5.22c-.79,1-1.55,2-2.34,3-.13.15-.25.31-.38.47q-2,2.49-4,4.95l-1.58,1.94a.23.23,0,0,0-.07-.07A22.27,22.27,0,0,1,352,58.47a.44.44,0,0,0-.46-.19c2.08-2,4.2-4,6.06-6.15,3.06-3.58,6.94-6.45,10.67-9.31a8.78,8.78,0,0,1,2.17-1.48c2-.71,4.39.22,6.2,1.13A35.34,35.34,0,0,1,382.08,46a24.51,24.51,0,0,0,2.43,1.75,15.4,15.4,0,0,1,3.58,3,9.58,9.58,0,0,0,6,2.56,46.09,46.09,0,0,0,7.56,8.16,28.45,28.45,0,0,0,5.26,3.39c1.67.83,4,2.13,5.92,2a4.33,4.33,0,0,0,1.78-.6,4.75,4.75,0,0,0,3.56,3,6.13,6.13,0,0,1,1.74.57c.72.47.72,1.17,1.09,1.86a2,2,0,0,0,.83.93c-.9,1-1.82,2-2.7,3ZM448,43.14c-2.66,4-6.16,14.86-7.84,19.37a133.12,133.12,0,0,1-6,14.82,32,32,0,0,1-3.9,6c-1.28,1.52-3.06,3.74-5.25,3.47s-4.57-1.66-6.59-2.79c-.91-.5-1.81-1-2.73-1.53-.42-.23-1-.71-1.5-.71h0c2.71-3,5.54-6,8.21-9.12a.41.41,0,0,0,.38-.46c.79-.92,1.57-1.85,2.32-2.79,1.6-2,2.79-4.34,4.24-6.48,1.26-1.88,2.51-3.73,3.58-5.73a34.18,34.18,0,0,0,2.51-5.12,25.38,25.38,0,0,0,.92-4.81c.47-3.84.47-7.92,1.66-11.63a1.93,1.93,0,0,0,.54.63,1.86,1.86,0,0,0,.89.75c1.55.69,3.18,1.2,4.79,1.74s2.64.41,4.12,1.19c.32.17,1.05.48,1.13.9C449.56,41.47,448.33,42.65,448,43.14Z"/><path class="cls-1" d="M418.32,44.57a11.22,11.22,0,0,1,4,1.66c.46.35.79.83,1.22,1.2s1.12.53,1.52.93c.12.13.34,0,.21-.18-.39-.39-.85-.45-1.3-.77s-.94-1-1.49-1.41a10.92,10.92,0,0,0-3.92-1.67h0a13,13,0,0,0,2.67-3.61c2.72.12,4.89,1.7,6.78,3.54a4.52,4.52,0,0,0-1.06,1.93,3.53,3.53,0,0,1-.77,1.39,9.26,9.26,0,0,0-.92.85.14.14,0,0,0,.23.16c.51-.67,1.16-1,1.52-1.77a6,6,0,0,1,1.23-2.4.1.1,0,0,0,0-.05.12.12,0,0,0,0-.2c-2-1.94-4.24-3.62-7.1-3.73a.12.12,0,0,0-.14.1.13.13,0,0,0-.11.08,12.68,12.68,0,0,1-2.59,3.5.14.14,0,0,0,0,.19C418.22,44.34,418.17,44.53,418.32,44.57Z"/><circle class="cls-2" cx="36.63" cy="47.37" r="36.25"/><circle class="cls-2" cx="24.54" cy="35.29" r="2.27"/><circle class="cls-2" cx="42.29" cy="25.85" r="1.13"/><circle class="cls-2" cx="16.24" cy="60.97" r="2.27"/><circle class="cls-2" cx="42.29" cy="63.61" r="4.15"/><circle class="cls-2" cx="51.35" cy="42.47" r="1.89"/><circle class="cls-2" cx="20.39" cy="19.05" r="0.38"/><circle class="cls-2" cx="10.57" cy="31.89" r="1.13"/><circle class="cls-2" cx="67.97" cy="56.06" r="1.13"/><circle class="cls-2" cx="64.57" cy="29.25" r="3.02"/><circle class="cls-2" cx="29.08" cy="80.6" r="1.51"/><path class="cls-3" d="M212.05,30.33l15.83-3.82L212,22.33a7.68,7.68,0,0,0-2.56-2.54l-4-16.67L201,20.17A7.71,7.71,0,0,0,199.16,22l-16.78,4.06L199,30.48a7.73,7.73,0,0,0,2.14,2.2L205,48.62l4.09-15.5A7.65,7.65,0,0,0,212.05,30.33Z"/><path class="cls-4" d="M127.14,29l5.74-1.39-5.75-1.51a2.73,2.73,0,0,0-.93-.92l-1.46-6.05-1.63,6.19a2.76,2.76,0,0,0-.65.67l-6.08,1.47,6,1.59a2.67,2.67,0,0,0,.77.8l1.4,5.78L126.07,30A2.73,2.73,0,0,0,127.14,29Z"/><path class="cls-4" d="M226.14,75l5.74-1.39-5.75-1.51a2.73,2.73,0,0,0-.93-.92l-1.46-6-1.63,6.19a2.76,2.76,0,0,0-.65.67l-6.08,1.47,6,1.59a2.67,2.67,0,0,0,.77.8l1.4,5.78L225.07,76A2.73,2.73,0,0,0,226.14,75Z"/><path class="cls-4" d="M304.14,24l5.74-1.39-5.75-1.51a2.73,2.73,0,0,0-.93-.92l-1.46-6.05-1.63,6.19a2.76,2.76,0,0,0-.65.67l-6.08,1.47,6,1.59a2.67,2.67,0,0,0,.77.8l1.4,5.78L303.07,25A2.73,2.73,0,0,0,304.14,24Z"/></g></g></svg>