<svg xmlns="http://www.w3.org/2000/svg" viewBox="0 0 278.82 31.21"><defs><style>.cls-1,.cls-2,.cls-3,.cls-4{fill:none;stroke:#fff;stroke-miterlimit:10;}.cls-1{stroke-width:0.34px;}.cls-2{stroke-width:0.54px;}.cls-3{stroke-width:0.21px;}.cls-4{stroke-width:0.2px;}</style></defs><title>Asset 1</title><g id="Layer_2" data-name="Layer 2"><g id="Layer_1-2" data-name="Layer 1"><path class="cls-1" d="M271.72,21.19l6.4-1.5-6.4-1.7a4.74,4.74,0,0,0-1-1l-1.7-6.8-1.9,6.9a2.7,2.7,0,0,0-.7.8l-6.8,1.6,6.8,1.8a2,2,0,0,0,.9.9l1.6,6.5,1.7-6.3A12,12,0,0,0,271.72,21.19Z"/><path class="cls-2" d="M20,18.39,30.12,16,20,13.29a4.89,4.89,0,0,0-1.6-1.6l-2.6-10.6L12.92,12a4.26,4.26,0,0,0-1.1,1.2l-10.7,2.5,10.6,2.8a4.67,4.67,0,0,0,1.4,1.4l2.4,10.2,2.6-9.9A4.69,4.69,0,0,0,20,18.39Z"/><path class="cls-3" d="M104.12,20.39l3.9-.9-3.9-1a1.7,1.7,0,0,0-.6-.6l-1-4.1-1.1,4.2a1,1,0,0,0-.4.5l-4.1,1,4.1,1.1a1.21,1.21,0,0,0,.5.5l.9,3.9,1-3.8A5,5,0,0,0,104.12,20.39Z"/><path class="cls-4" d="M183.42,14.79l3.7-.9-3.7-1-.6-.6-.9-3.9-1.1,4c-.2.1-.3.3-.4.4l-3.9.9,3.9,1a1.21,1.21,0,0,0,.5.5l.9,3.7,1-3.6A.74.74,0,0,0,183.42,14.79Z"/></g></g></svg>