<svg xmlns="http://www.w3.org/2000/svg" viewBox="0 0 398.88 188.76"><defs><style>.cls-1{fill:#fff;}</style></defs><title>Asset 2</title><g id="Layer_2" data-name="Layer 2"><g id="Layer_1-2" data-name="Layer 1"><path class="cls-1" d="M22.48,188.45h-.13c-2.16-.13-4.84-.52-6.43-2.37l-.15-.2A7.22,7.22,0,0,1,15,180c.68-3.41,0-41.45-.35-45v-.14c-.07-4.17-.55-9.31-1.15-10.31-1.31-1.88-3.81-2.58-5.69-2.85-3.07-.48-5.39-1.19-6.81-3.07l-.09-.13c-1.17-1.85-1.1-4.07-.6-7.06l0-.2A5.28,5.28,0,0,1,5.69,107h.19c.8.07,1.57.11,2.32.15s1.57.08,2.36.15c2.55.11,13.69-.22,19.06-.37,1.87-.06,3.17-.09,3.4-.09a34.59,34.59,0,0,1,9.08,1.45c4.73,1.3,4.11,6.09,3.75,8.71-.33,4.21-3.58,4.87-6,5-6,.15-9.37,1.69-9.24,9.1.29,13.6.15,49,.15,49.36C30.75,185.92,28.12,188.45,22.48,188.45ZM19,183.55c.51.47,1.68.78,3.5.89,3.62,0,4.2-.95,4.2-3.95,0-.36.14-35.71-.15-49.27-.2-11.52,7.38-13,13.09-13.19,2.09-.11,2.12-.47,2.18-1.34v-.14c.55-4-.06-4.14-.83-4.36a30.86,30.86,0,0,0-8-1.3c-.22,0-1.48,0-3.29.09-5.87.17-16.8.48-19.41.36h-.1c-.73-.07-1.47-.11-2.22-.15s-1.56-.07-2.39-.15c-.53,0-1,.15-1.33,1.18-.36,2.18-.36,3.42,0,4.07.54.64,1.83,1.09,4.15,1.45,3.79.54,6.69,2.1,8.36,4.5,1.48,2,1.82,8.66,1.89,12.5.29,3.87,1.08,42.08.26,46.15A3.84,3.84,0,0,0,19,183.55Z"/><path class="cls-1" d="M104.8,188.68c-9.11,0-12.73-1.29-19.31-6.89-3.93-3.46-11.27-12.72-11.58-13.11l-.3-.46c-.69-1.14-1-1.53-1.94-1.53-1.26,0-2.21.37-3.07,2.21a15.41,15.41,0,0,0-1.21,9.19c.51,2.43-1.1,4.88-2.11,6.13-.46.56-2.87,3.39-5.21,3.39-2.51,0-5.73-.51-7-1.47l-.22-.19a5.11,5.11,0,0,1-1.39-5.38c.57-2.95.26-41.85-.1-67.31,0-2.3.95-5.17,5.47-6,3-.49,21.28.34,23.35.43,5.65.18,10,3.11,13.84,6.25,6.33,5.49,9.12,12.44,8.84,21.89.91,6-1.52,11-4.54,16.38-.81,1.41-6,7-6.15,7.16l-.16.14c-2.78,2.21-3.36,3.22-3.36,4.08v.18c-.08.89.75,2.18,2.63,4,5.88,5.59,7.91,6.94,14.27,7.36,7.17.55,7.85,1.5,8.87,7.14a6.47,6.47,0,0,1-.47,3.83l-.2.33C112.35,188.35,104.88,188.68,104.8,188.68Zm-27.67-22.4c.78,1,7.54,9.45,11,12.48,5.78,4.91,8.59,5.91,16.69,5.91a34.55,34.55,0,0,0,5.68-.82,3.5,3.5,0,0,0,0-.84c-.21-1.2-.52-2.92-.85-3.18s-2.22-.46-4.3-.62c-7.79-.5-10.65-2.61-16.83-8.49-2.13-2.12-4-4.44-3.84-7.19s1.86-4.73,4.78-7.05c.77-.81,4.91-5.4,5.41-6.23,2.77-4.92,4.83-9.08,4-13.95l0-.19v-.2c.29-8.36-2-14.18-7.4-18.87-4.47-3.65-7.79-5.2-11.42-5.31-7.68-.35-20.56-.8-22.52-.49s-2.13,1-2.13,2c.22,15.3.84,65.56-.09,68.54l0,.11a1.11,1.11,0,0,0,.29,1.05,14.16,14.16,0,0,0,4.44.66c1.07-.37,3.79-3.33,3.49-4.76A19.48,19.48,0,0,1,65,167.19c1.4-3,3.65-4.51,6.7-4.51,3.26,0,4.58,2.16,5.37,3.45Zm-5-12.06a7.89,7.89,0,0,1-1.1-.07h0c-6.43-1.08-7-5.93-7-10.42-.17-1.69-.77-10-.92-12.84-.37-9.5,4.87-12.42,8-13.32h0c1.83-.52,7.18.24,9.19,1.17a19.91,19.91,0,0,1,10.76,15.35c.84,6.15-1.62,12.36-6.76,17l-.07.06C81.8,153.11,75.21,154.22,72.14,154.22Zm-.23-4h0Zm-.07,0c1.38.13,8-.78,9.83-2.17,4.17-3.77,6.09-8.55,5.42-13.48a15.84,15.84,0,0,0-8.54-12.22,19.75,19.75,0,0,0-6.31-.93h0c-3.59,1-5.31,4.15-5.11,9.29.15,2.87.76,11.33.91,12.7v.21c0,5.1.92,6.11,3.67,6.57Z"/><path class="cls-1" d="M163.84,188.09h-.06c-3.49,0-6-1.81-7.5-5.36-1.84-4.47-7.29-7.7-12.94-7.62a11,11,0,0,0-10,6.26l0,.12a18.21,18.21,0,0,1-1.21,2.42c-.78,1.36-2.72,2.43-5.75,3.15-1.46.34-5,1-6.55.17h0c-2.73-1.48-3.65-3.43-3-6.34.33-1.71.85-3.45,1.35-5.12.17-.58.34-1.14.5-1.7.71-2.23,14.22-55.43,15.23-60.6a6.15,6.15,0,0,1,4-4.84c2.65-1.06,9.4-1.55,10.7-1.33,3.39.59,5.52,2.42,6.34,5.42C157.45,122,171,174.3,172,180.26c.34,1.72.66,4.3-.74,6-.4.5-1.16,1.44-7.38,1.8Zm-20.38-17c7.29,0,14.07,4.13,16.52,10.09,1,2.36,2.22,2.87,3.75,2.88a30.11,30.11,0,0,0,4.52-.56,6.68,6.68,0,0,0-.18-2.54c-.89-5.47-14.11-56.51-17.06-67.19-.34-1.25-1-2.15-3.15-2.53-.91-.09-6.66.36-8.53,1.11a2.17,2.17,0,0,0-1.52,1.86c-1,5.2-14.43,58.17-15.33,61-.15.51-.32,1.1-.5,1.69-.47,1.58-1,3.22-1.27,4.81-.24,1-.3,1.27.83,1.9,1.92.28,6.52-1.08,7.08-1.79a12.26,12.26,0,0,0,.91-1.81,14.8,14.8,0,0,1,13.77-8.93Zm-.29-6.53c-2.51,0-4.34-.63-5.6-1.92-1.85-1.9-2.16-4.79-2.06-8.84s1-8.39,3.2-13.83c1-2.47,2.4-4.76,6.14-4.76s4.84,3.05,5.33,4.35l.1.29c.09.3,2.17,7.47,2.79,10.9.53,2.84,1.22,7.82,0,9.59h0C151,163.35,148.11,164.57,143.17,164.57Zm1.68-25.34c-1.13,0-1.6.18-2.41,2.24-2,5-2.92,8.78-2.92,12.39-.06,2.46,0,5,.92,6,.17.17.69.71,2.73.71,4.35,0,5.61-1.11,6.51-2.38a29.89,29.89,0,0,0-.55-6.7c-.55-3.06-2.46-9.66-2.68-10.43l0-.07C145.88,139.54,145.6,139.23,144.85,139.23Z"/><path class="cls-1" d="M199.66,188.3c-6.06,0-9.28-3.09-11.11-10.69-.2-.83-1.16-4.53-2.52-9.76-12-46.36-13.45-52.49-13.55-53.82h0c-.28-5.13,2.78-6.56,4.63-7,1.45-.28,10.79,1.63,12,5.67,1.77,5.93,9.18,39.62,9.69,43.51.07.46.34,1.32,1.22,1.32a1.55,1.55,0,0,0,1.58-1c.71-2.14,6.61-28.89,8.83-39,.64-2.88,1.08-4.88,1.2-5.42.7-4,8.76-4.68,8.84-4.68h.12c3.26.19,5.17.85,6.18,2.12l.11.14c.67,1,.87,1.33-7.4,35.63-4.14,17.19-8.44,34.54-9.26,37.67a5.24,5.24,0,0,1-4.32,4.6A33.79,33.79,0,0,1,199.66,188.3Zm-23.18-74.43c.41,2.8,9.52,37.91,13.43,53,1.36,5.25,2.33,9,2.54,9.81,1.7,7.08,4.17,7.64,7.21,7.64a29.87,29.87,0,0,0,5.45-.57c.54-.11.94-.27,1.13-1.42l0-.18c1.81-6.85,15.27-61.72,16.76-70.22a11.82,11.82,0,0,0-2.59-.39c-1.38.15-4.26.9-4.95,1.55-.11.52-.55,2.51-1.19,5.4-4.24,19.23-8.26,37.31-8.93,39.31a5.47,5.47,0,0,1-5.4,3.82,5.28,5.28,0,0,1-5.19-4.74c-.42-3.21-7.73-36.81-9.57-43-.59-1.06-5.74-2.72-7.47-2.85-.62.15-1.4.5-1.27,2.77Z"/><path class="cls-1" d="M245.07,188.15c-6.18,0-7-4.07-7-8.07-.1-2.47.12-28.37.38-56,0-5.1.08-8.52.08-8.91V112.7c0-2.76,1.58-4.65,4.45-5.32l.22,0h.23a7.39,7.39,0,0,0,.78-.06,11.87,11.87,0,0,1,1.21-.09,22.22,22.22,0,0,1,5.18.82l.23.07a4.35,4.35,0,0,1,3,4.48v51.91c0,6.58,2.35,9.14,8.38,9.14l11-.15h.19c4,.32,6,2.86,5.81,7.56,0,4.31-2,6.62-6,6.83C270.89,188,245.31,188.15,245.07,188.15Zm-1.41-76.81c-1.11.29-1.16.7-1.16,1.36v2.44c0,.39,0,3.83-.08,8.94-.15,16-.5,53.56-.39,55.86v.1c0,4.09.88,4.09,3,4.09,1.06,0,25.84-.15,27.8-.29,1.54-.08,2.25-.24,2.25-2.89.11-3.23-.91-3.4-2-3.49l-10.93.15c-8.22,0-12.4-4.42-12.4-13.15V112.55a1.62,1.62,0,0,0-.06-.57h0a1.14,1.14,0,0,0-.22-.11,18.38,18.38,0,0,0-4.11-.68,7.51,7.51,0,0,0-.78.07Z"/><path class="cls-1" d="M320.37,188.76l-1,0c-.56-.07-1.08-.1-1.6-.13s-1.21-.08-1.85-.16c-2.58-.14-5.51-.3-8.37-.3-1.4,0-6.71.1-11,.19l-6.29.11h-1.07a5.74,5.74,0,0,1-4.76-2,7.28,7.28,0,0,1-1.5-5.42c.25-3.22.26-24.38,0-62.87,0-2,0-3.37,0-3.75-.24-4.69,2.8-6.07,5.49-6.74a39,39,0,0,1,10.11-1.13c2,0,6,.25,8.94.43,1.52.09,3.08.19,3.42.19h.16c1,.08,4.5.08,10.49,0h.8c2.95,0,4.73,1.28,5.45,3.92l0,.18c.63,3.53.84,8.34-4.5,9.33l-.25,0c-9.53.6-20.15,1.42-21.42,1.77-2.18.64-2.74,2.6-2.82,4.13l-.15,6.81c.14,7.38,2,9.1,9.91,9.1,2.52,0,8.56,0,10.62.49,2.66.46,4,1.91,4.21,4.69.34,3.11,0,5.3-1.14,6.85l-.21.24c-1.19,1.2-3.11,1.82-5.7,1.82-.42,0-8.38.46-13.62.76h-.12c-.5,0-1.11.15-1.83,1.24l-.15.19a9.9,9.9,0,0,0-.11,12.57l.08.12c.64.93,1.21,1.34,1.56,1.41,1.29,0,5.58.27,11,.58,2.88.16,5.86.33,6.23.34.95,0,4.37.14,4.51.15h0a3.43,3.43,0,0,1,2.42,1.23l.18.18.12.22a10.29,10.29,0,0,1,.36,9.66C325.43,188.76,321.62,188.76,320.37,188.76Zm-.65-4h.65c2.48,0,2.85-.8,3.06-1.28a6.27,6.27,0,0,0,0-5.57c-1.22-.05-3.32-.13-3.95-.13-.4,0-2.18-.1-6.46-.35s-9.93-.57-10.95-.57h-.22a6.51,6.51,0,0,1-4.45-3.1,13.91,13.91,0,0,1,.18-17.52,6,6,0,0,1,5-2.92c6.15-.35,13.51-.77,13.8-.77a4.81,4.81,0,0,0,2.75-.54,7.42,7.42,0,0,0,.31-4,2.43,2.43,0,0,0-.19-.93h0a1.91,1.91,0,0,0-.75-.21l-.11,0a75.1,75.1,0,0,0-9.79-.4c-10.1,0-13.75-3.44-13.92-13.12l.15-6.95c.21-4,2.29-6.82,5.72-7.84,2.22-.63,18.56-1.68,22.16-1.9,1-.19,1.89-.52,1.19-4.59-.18-.65-.3-.87-1.56-.87h-.75c-3.89.05-9.2.1-10.79,0-.49,0-1.59-.08-3.57-.2-2.89-.18-6.85-.42-8.7-.42a34.5,34.5,0,0,0-9.11,1c-2.5.62-2.56,1.23-2.48,2.68v.11c0,.28,0,1.63,0,3.79.09,14.38.36,58.16,0,63.24a3.26,3.26,0,0,0,.61,2.53,2.15,2.15,0,0,0,1.65.5h1.07l6.21-.11c4.5-.09,9.61-.19,11.05-.19,3,0,6,.16,8.66.31h.15c.58.07,1.13.11,1.67.14S319.13,184.68,319.72,184.75Zm4-6.84h0Z"/><path class="cls-1" d="M389.19,188.68c-9.12,0-12.73-1.29-19.32-6.89-3.93-3.46-11.26-12.72-11.57-13.11l-.3-.46c-.7-1.14-1-1.53-1.95-1.53-1.26,0-2.21.37-3.07,2.21a15.41,15.41,0,0,0-1.2,9.19c.51,2.43-1.1,4.88-2.11,6.13-.46.56-2.88,3.39-5.22,3.39-2.51,0-5.73-.51-7-1.47l-.22-.19a5.13,5.13,0,0,1-1.39-5.38c.57-2.95.26-41.85-.09-67.31,0-2.29.94-5.17,5.47-6a49.07,49.07,0,0,1,8.13-.64c2.74,0,14.23,1,15.24,1.07,5.65.2,10,3.12,13.81,6.25,6.33,5.49,9.13,12.44,8.84,21.89.92,6-1.51,11-4.54,16.38-.8,1.4-5.95,7-6.15,7.16l-.16.14c-2.78,2.2-3.35,3.22-3.35,4.08v.18c-.08.89.76,2.18,2.63,4,5.88,5.59,7.91,6.94,14.27,7.36,7.18.55,7.86,1.5,8.87,7.14a6.5,6.5,0,0,1-.47,3.83l-.2.33C396.73,188.35,389.26,188.68,389.19,188.68Zm-27.67-22.4c.77,1,7.53,9.45,11,12.48,5.77,4.91,8.58,5.91,16.69,5.91a34.59,34.59,0,0,0,5.67-.82,3.45,3.45,0,0,0,0-.84c-.22-1.2-.53-2.92-.86-3.18s-2.21-.46-4.29-.62c-7.79-.5-10.65-2.61-16.84-8.49-2.13-2.12-4-4.44-3.83-7.19,0-2.72,1.85-4.73,4.77-7.05.78-.82,4.91-5.4,5.42-6.23,2.76-4.92,4.82-9.08,4-13.95l0-.19v-.2c.28-8.35-2-14.18-7.41-18.87-4.47-3.65-7.79-5.2-11.42-5.31h-.1c-.13,0-12.32-1.06-15-1.06a46.37,46.37,0,0,0-7.47.58c-2,.35-2.12,1-2.12,2,.21,15.3.83,65.56-.1,68.54l0,.11a1.09,1.09,0,0,0,.29,1.05,14,14,0,0,0,4.43.66c1.07-.37,3.8-3.33,3.5-4.76a19.41,19.41,0,0,1,1.52-11.65c1.39-3,3.64-4.51,6.69-4.51,3.26,0,4.58,2.16,5.37,3.45Zm-2.72-11.8a12.84,12.84,0,0,1-3.48-.35c-6.33-1.11-6.91-5.93-6.92-10.4l0-.24c-.14-1.25-.28-2.55-.29-3.74-.29-3.05-.45-5.93-.6-8.86-.37-9.41,4.76-12.37,7.92-13.3,2.54-1,5.1-.78,9.28,1.15a19.89,19.89,0,0,1,10.76,15.35c.84,6.15-1.62,12.36-6.75,17l-.08.06A15,15,0,0,1,358.8,154.48ZM358.5,121a4.48,4.48,0,0,0-1.71.32l-.19.06c-3.59,1-5.31,4.15-5.11,9.29.15,2.89.31,5.75.6,8.74v.2c0,1,.13,2.17.26,3.4l.05.57c0,5.1.92,6.11,3.67,6.57l.22.05a9.11,9.11,0,0,0,2.5.23,10.93,10.93,0,0,0,7.25-2.42c4.17-3.77,6.09-8.55,5.42-13.48a15.84,15.84,0,0,0-8.54-12.22A11.51,11.51,0,0,0,358.5,121Z"/><path class="cls-1" d="M146.28,103.85a5.94,5.94,0,0,1-3.13-.85l-.22-.16c-3.52-2.85-.32-7.1,4.53-13.52a144,144,0,0,0,8.45-12.11,5.49,5.49,0,0,0,1-4.28c-.74-2.8-4.69-5-7.87-6.77-3-1.68-5.37-3-5.84-5.11a3.33,3.33,0,0,1,.61-2.71c1.77-2.42,3.48-4.53,5-6.39,3.74-4.62,6.22-7.66,5.88-10.72-.3-2.76-3-6.13-8.51-10.58A34.17,34.17,0,0,0,143,34.46c-1,1.31-2,2.67-3,3.78s-3.9,4.59-7.21,8.58c-3,3.6-6.35,7.67-9.11,10.92-3.72,4.81-7.33,9.11-10.83,13.26-3.71,4.41-7.22,8.58-10.42,12.87A31.12,31.12,0,0,1,95,91.24a51.76,51.76,0,0,0-4,3.27,18.28,18.28,0,0,1-9.46,4.28,5.55,5.55,0,0,1-5.21-2.86l-.15-.34c-1.08-3.21,3.3-8.24,15.17-20.75,3.07-3.24,6.25-6.59,8.84-9.52,1.18-1.35,5.66-6.3,11.33-12.57,9.55-10.55,24-26.49,25-27.88,2.08-2.77,7.26-6.7,11.26-6.55,6.29.21,12.61,8.73,18,16.7.82,1.2,1.53,2.23,1.85,2.61,2.84,3.25,6.57,7.75,8.53,11.68,4-5.77,14.11-19.11,24.74-33,2-2.67,3.64-4.77,3.82-5s.27-.43.47-.78C206.88,7.66,211.29.22,218.32,0s13.91,8.29,16.81,11.92l.76.94c3.11,3.43,8.65,9.69,14.51,16.31,8.61,9.73,18.37,20.76,20.91,23.35,1.8,1.83,4.46,4.49,7.59,7.6,9,8.95,21.27,21.21,28.67,29.4a7.56,7.56,0,0,1-5.41,12.63l-4.76.1c-2.16,0-4.41.07-4.93.15l-.34,0-.35-.07c-.77-.14-7.34-.63-13.14-1.07-7.65-.57-16.33-1.22-20.15-1.65-18.06-2-34.52-19.24-34.55-25.23,0-5.16,6.32-8.83,10.38-11L236.71,62c2.11-1.29,2.18-1.95,2.18-2,0-.9-3.39-3.1-5.63-4.56a65.56,65.56,0,0,1-8.57-6.27,5.1,5.1,0,0,1-2.29-3.43C222,43,224,40.38,226.24,37.62c2-2.47,4.18-5.26,3.59-7.24-.35-1.17-1.89-2.93-7.26-4.72l-.77-.26-.37-.72c-1.54-3-.25-5.55.68-7.44,1.11-2.23,1.06-2.53.3-3.24a21.41,21.41,0,0,0-3.19-2c-1.68,1.86-4.6,6.53-6.62,9.74-1.31,2.09-2.44,3.89-3.23,5-1.32,2.16-4,6-7.09,10.51-3.68,5.34-7.86,11.39-10.33,15.41-.39.62-1.78,2.68-3.88,5.8C185,63,180.31,70,176.16,76.31,176,76.62,157.62,103.85,146.28,103.85Zm-.77-4.14c1.19.44,4.81.42,13.48-8.47A130.35,130.35,0,0,0,172.8,74.12c4.17-6.38,8.85-13.33,11.95-17.93,1.92-2.85,3.44-5.11,3.78-5.66,2.53-4.11,6.74-10.21,10.45-15.59,3-4.29,5.76-8.34,7-10.38l.09-.14c.71-1,1.88-2.84,3.12-4.82,3.57-5.69,6.25-9.84,8.11-11.32,2.4-1.93,7.78,2.73,7.83,2.78,3.1,2.88,1.57,5.94.57,8-.72,1.45-1.09,2.32-1,3.14,5.2,1.87,8,4.13,8.91,7.07,1.19,4-1.73,7.64-4.29,10.88-1.42,1.77-3.18,4-3,5,0,.24.28.51.7.8l.23.18a62.24,62.24,0,0,0,8.15,6c4.35,2.82,7.49,4.85,7.46,8,0,2.27-1.87,3.88-3.5,5a8.28,8.28,0,0,1-2.35,1.52c-2.5,1.3-9.12,4.75-9.1,7.85,0,3.28,14.73,19.44,31,21.26,3.75.43,12.38,1.07,20,1.64,8.11.61,12,.91,13.31,1.09.84-.08,2.42-.11,5.08-.15,1.46,0,3.09,0,4.72-.1a3.56,3.56,0,0,0,2.55-5.94C297.27,84.1,285,71.88,276.07,63c-3.14-3.12-5.81-5.79-7.62-7.63-2.61-2.66-12-13.26-21.06-23.5C241.54,25.21,236,19,232.87,15.49c-.27-.32-.55-.66-.87-1.07C229.69,11.53,223.59,3.83,218.45,4c-4.83.15-8.3,6-9.79,8.5-.26.45-.48.81-.63,1s-1.27,1.7-3.92,5.17c-6.73,8.82-24.59,32.23-26,35L177.44,55,176,54.8c-2.18-.27-2.72-1.43-2.82-2.22-1.4-4.08-6.79-10.26-8.59-12.32-.48-.55-1.18-1.57-2.14-3-3-4.43-10.08-14.79-14.87-15-2.18-.11-6.22,2.71-7.91,4.95-1.07,1.43-11.59,13.08-25.24,28.17-5.44,6-10.13,11.2-11.3,12.53-2.64,3-5.84,6.36-8.94,9.63-5.37,5.66-13.39,14.11-14.18,16.72a1.54,1.54,0,0,0,1.2.46,14.56,14.56,0,0,0,7-3.25C90,90,91.38,89,92.59,88a27.18,27.18,0,0,0,6.61-6.56c3.27-4.38,6.81-8.59,10.56-13,3.48-4.13,7.08-8.41,10.75-13.17l.06-.07c2.75-3.23,6.13-7.31,9.11-10.91,3.35-4,6.23-7.53,7.33-8.73.89-1,1.86-2.26,2.8-3.5,2.59-3.43,4.15-5.38,6.08-5.63A2.83,2.83,0,0,1,148,27c7,5.56,10.19,9.68,10.64,13.79.52,4.72-2.53,8.48-6.76,13.68-1.4,1.74-3,3.69-4.6,5.88a24.69,24.69,0,0,0,3.69,2.3c3.84,2.14,8.61,4.8,9.79,9.26a9.4,9.4,0,0,1-1.43,7.39,149.44,149.44,0,0,1-8.68,12.44C148.4,94.73,145.61,98.44,145.51,99.71Z"/></g></g></svg>